<svg width="417" height="515" viewBox="0 0 417 515" fill="none" xmlns="http://www.w3.org/2000/svg">
<path d="M375.414 513.113V511.068L377.05 510.904C379.177 510.631 380.732 510.277 381.713 509.84C382.695 509.404 383.322 508.586 383.595 507.386C383.922 506.186 384.086 504.387 384.086 501.987V489.389L369.77 464.356C368.897 462.774 368.024 461.52 367.152 460.593C366.334 459.611 365.407 458.848 364.37 458.302C363.389 457.757 362.189 457.348 360.771 457.075L358.398 456.584V454.539L370.833 454.784L383.104 454.539V456.584L380.486 456.83C375.741 457.211 374.842 460.02 377.787 465.256L391.203 488.571H388.258L401.592 465.256C403.174 462.529 403.719 460.511 403.229 459.202C402.792 457.839 401.292 457.048 398.729 456.83L396.357 456.584V454.539L407.155 454.948L415.827 454.539V456.584L413.618 456.993C412.473 457.211 411.464 457.566 410.591 458.057C409.773 458.493 408.982 459.148 408.219 460.02C407.51 460.838 406.746 461.929 405.928 463.292L391.039 489.307V501.987C391.039 504.387 391.176 506.186 391.448 507.386C391.776 508.586 392.43 509.404 393.412 509.84C394.448 510.277 396.002 510.631 398.075 510.904L399.711 511.068V513.113L387.603 512.867H387.522L375.414 513.113Z" fill="#6F6C43"/>
<path d="M304.202 513.112V511.067L304.938 510.986C306.901 510.767 308.51 510.386 309.765 509.84C311.019 509.295 312.082 508.477 312.955 507.386C313.828 506.241 314.646 504.714 315.409 502.805L335.37 454.375H337.824L357.294 502.805C358.44 505.641 359.639 507.659 360.894 508.859C362.203 510.004 363.893 510.686 365.966 510.904L367.602 511.067V513.112L357.458 512.867L344.369 513.112V511.067L346.005 510.904C348.732 510.631 350.368 509.922 350.913 508.777C351.513 507.577 351.268 505.559 350.177 502.723L333.652 461.083H335.615L318.436 502.723C317.618 504.741 317.182 506.323 317.127 507.468C317.073 508.559 317.509 509.349 318.436 509.84C319.363 510.331 320.836 510.686 322.854 510.904L324.49 511.067V513.112L314.1 512.867L304.202 513.112ZM322.445 492.088L323.508 489.47H345.432L346.414 492.088H322.445Z" fill="#6F6C43"/>
<path d="M250.787 513.113V511.068L252.423 510.904C254.55 510.686 256.105 510.359 257.086 509.922C258.122 509.431 258.777 508.586 259.05 507.386C259.377 506.186 259.54 504.387 259.54 501.987V465.665C259.54 463.211 259.377 461.384 259.05 460.184C258.777 458.984 258.15 458.166 257.168 457.73C256.186 457.293 254.632 456.966 252.505 456.748L250.869 456.584V454.539L262.976 454.784H274.511C297.417 454.784 308.87 464.11 308.87 482.762C308.87 488.816 307.616 494.106 305.107 498.633C302.598 503.16 299.08 506.677 294.554 509.186C290.027 511.64 284.71 512.867 278.601 512.867H262.895L250.787 513.113ZM271.975 510.413H278.929C286.073 510.413 291.527 508.095 295.29 503.459C299.108 498.824 301.016 492.116 301.016 483.335C301.016 474.554 299.026 468.01 295.045 463.701C291.063 459.393 285.01 457.239 276.883 457.239H266.576V500.923C266.576 504.305 266.985 506.732 267.803 508.204C268.676 509.677 270.066 510.413 271.975 510.413Z" fill="#6F6C43"/>
<path d="M205.366 513.767C203.185 513.767 201.194 513.412 199.395 512.703C197.649 511.994 196.068 511.285 194.65 510.576C193.45 509.922 192.441 509.431 191.623 509.104C190.859 508.777 190.178 508.613 189.578 508.613C188.814 508.613 188.269 508.94 187.942 509.595C187.669 510.195 187.451 510.876 187.287 511.64L187.042 512.867H184.997L185.406 503.214L185.16 492.661H187.205L188.105 496.506C188.705 498.905 189.769 501.25 191.296 503.541C192.877 505.832 194.841 507.713 197.186 509.186C199.585 510.658 202.312 511.394 205.366 511.394C207.057 511.394 208.666 511.04 210.193 510.331C211.775 509.567 213.056 508.422 214.038 506.895C215.074 505.368 215.592 503.377 215.592 500.923C215.592 498.469 215.047 496.369 213.956 494.624C212.92 492.824 211.393 491.215 209.375 489.797C207.412 488.38 205.012 487.016 202.176 485.707L198.74 484.071C194.65 482.108 191.596 479.953 189.578 477.608C187.614 475.209 186.633 472.155 186.633 468.446C186.633 465.555 187.342 462.992 188.76 460.756C190.178 458.52 192.114 456.775 194.568 455.52C197.077 454.266 199.94 453.639 203.158 453.639C205.394 453.639 207.275 453.939 208.802 454.539C210.329 455.139 211.529 455.657 212.402 456.093C213.82 456.802 214.938 457.157 215.756 457.157C216.629 457.157 217.147 456.311 217.31 454.621H219.355L219.11 462.474L219.274 470.409H217.228C216.901 467.355 216.056 464.765 214.692 462.638C213.329 460.456 211.666 458.793 209.702 457.647C207.793 456.502 205.748 455.93 203.567 455.93C200.349 455.93 197.731 456.857 195.713 458.711C193.75 460.565 192.768 462.938 192.768 465.828C192.768 468.937 193.777 471.391 195.795 473.191C197.813 474.936 200.431 476.599 203.649 478.181L207.003 479.817C210.002 481.29 212.565 482.817 214.692 484.398C216.874 485.925 218.537 487.725 219.683 489.797C220.882 491.87 221.482 494.46 221.482 497.569C221.482 500.787 220.746 503.623 219.274 506.077C217.856 508.531 215.92 510.44 213.465 511.803C211.066 513.112 208.366 513.767 205.366 513.767Z" fill="#6F6C43"/>
<path d="M152.523 513.113V511.068L154.159 510.904C156.286 510.631 157.84 510.277 158.822 509.84C159.804 509.404 160.431 508.586 160.704 507.386C161.031 506.186 161.194 504.387 161.194 501.987V465.665C161.194 463.211 161.031 461.411 160.704 460.266C160.431 459.066 159.804 458.248 158.822 457.811C157.84 457.32 156.286 456.966 154.159 456.748L152.523 456.584V454.539L164.712 454.784L176.82 454.539V456.584L175.183 456.748C173.111 456.966 171.557 457.32 170.52 457.811C169.539 458.248 168.884 459.066 168.557 460.266C168.284 461.411 168.148 463.211 168.148 465.665V501.987C168.148 504.387 168.284 506.186 168.557 507.386C168.884 508.586 169.539 509.404 170.52 509.84C171.557 510.277 173.111 510.631 175.183 510.904L176.82 511.068V513.113L164.712 512.867L152.523 513.113Z" fill="#6F6C43"/>
<path d="M99.2368 513.113V511.068L100.873 510.904C103 510.686 104.554 510.359 105.536 509.922C106.518 509.486 107.145 508.668 107.417 507.468C107.745 506.268 107.908 504.441 107.908 501.987V465.665C107.908 463.211 107.745 461.384 107.417 460.184C107.145 458.984 106.518 458.166 105.536 457.73C104.554 457.293 103 456.966 100.873 456.748L99.2368 456.584V454.539L111.508 454.784L123.533 454.539V456.584L121.243 456.83C119.552 456.993 118.243 457.32 117.316 457.811C116.389 458.302 115.735 459.093 115.353 460.184C115.026 461.22 114.862 462.72 114.862 464.683V498.797C114.862 502.014 115.107 504.468 115.598 506.159C116.089 507.85 117.016 508.995 118.38 509.595C119.798 510.195 121.815 510.495 124.433 510.495H130.569C135.041 510.495 138.368 509.322 140.549 506.977C142.785 504.632 144.121 500.869 144.558 495.688H146.357L145.539 513.113L111.344 512.867L99.2368 513.113Z" fill="#6F6C43"/>
<path d="M71.074 513.767C66.9291 513.767 63.1114 513.031 59.621 511.558C56.1851 510.086 53.1855 508.013 50.6223 505.341C48.1135 502.614 46.1502 499.423 44.7322 495.769C43.3687 492.061 42.687 488.025 42.687 483.662C42.687 479.299 43.3687 475.29 44.7322 471.636C46.1502 467.982 48.1135 464.819 50.6223 462.147C53.1855 459.42 56.1851 457.32 59.621 455.848C63.1114 454.375 66.9291 453.639 71.074 453.639C75.2188 453.639 79.0092 454.375 82.4451 455.848C85.9355 457.32 88.9351 459.42 91.4438 462.147C94.0071 464.819 95.9705 467.982 97.3339 471.636C98.7519 475.29 99.4609 479.299 99.4609 483.662C99.4609 488.025 98.7519 492.061 97.3339 495.769C95.9705 499.423 94.0071 502.614 91.4438 505.341C88.9351 508.013 85.9355 510.086 82.4451 511.558C79.0092 513.031 75.2188 513.767 71.074 513.767ZM71.074 511.313C84.4357 511.313 91.1166 502.096 91.1166 483.662C91.1166 465.283 84.4357 456.093 71.074 456.093C57.7122 456.093 51.0313 465.283 51.0313 483.662C51.0313 502.096 57.7122 511.313 71.074 511.313Z" fill="#6F6C43"/>
<path d="M21.0369 513.767C18.8554 513.767 16.8647 513.412 15.065 512.703C13.3198 511.994 11.7382 511.285 10.3202 510.576C9.12035 509.922 8.1114 509.431 7.29334 509.104C6.52981 508.777 5.84808 508.613 5.24817 508.613C4.48464 508.613 3.93926 508.94 3.61203 509.595C3.33935 510.195 3.12119 510.876 2.95758 511.64L2.71216 512.867H0.666992L1.07603 503.214L0.830606 492.661H2.87577L3.77565 496.506C4.37556 498.905 5.43905 501.25 6.96611 503.541C8.54771 505.832 10.5111 507.713 12.8562 509.186C15.2559 510.658 17.9828 511.394 21.0369 511.394C22.7275 511.394 24.3364 511.04 25.8635 510.331C27.4451 509.567 28.7267 508.422 29.7084 506.895C30.7446 505.368 31.2627 503.377 31.2627 500.923C31.2627 498.469 30.7173 496.369 29.6266 494.624C28.5904 492.824 27.0633 491.215 25.0454 489.797C23.082 488.38 20.6824 487.016 17.8464 485.707L14.4105 484.071C10.3202 482.108 7.26607 479.953 5.24817 477.608C3.28481 475.209 2.30313 472.155 2.30313 468.446C2.30313 465.555 3.01212 462.992 4.4301 460.756C5.84808 458.52 7.78418 456.775 10.2384 455.52C12.7471 454.266 15.6104 453.639 18.8281 453.639C21.0641 453.639 22.9457 453.939 24.4727 454.539C25.9998 455.139 27.1996 455.657 28.0722 456.093C29.4902 456.802 30.6083 457.157 31.4263 457.157C32.2989 457.157 32.817 456.311 32.9806 454.621H35.0258L34.7804 462.474L34.944 470.409H32.8988C32.5716 467.355 31.7263 464.765 30.3628 462.638C28.9994 460.456 27.336 458.793 25.3726 457.647C23.4638 456.502 21.4186 455.93 19.2371 455.93C16.0194 455.93 13.4016 456.857 11.3837 458.711C9.42031 460.565 8.43863 462.938 8.43863 465.828C8.43863 468.937 9.44758 471.391 11.4655 473.191C13.4834 474.936 16.1012 476.599 19.3189 478.181L22.673 479.817C25.6726 481.29 28.2359 482.817 30.3628 484.398C32.5443 485.925 34.2078 487.725 35.353 489.797C36.5529 491.87 37.1528 494.46 37.1528 497.569C37.1528 500.787 36.4165 503.623 34.944 506.077C33.526 508.531 31.5899 510.44 29.1357 511.803C26.7361 513.112 24.0364 513.767 21.0369 513.767Z" fill="#6F6C43"/>
<path d="M391.039 489.307L405.928 463.292C406.746 461.929 407.51 460.838 408.219 460.02C408.982 459.147 409.774 458.493 410.592 458.057C411.464 457.566 412.473 457.211 413.618 456.993L415.827 456.584V454.539L407.155 454.948L396.357 454.539V456.584L398.729 456.83C401.293 457.048 402.792 457.839 403.229 459.202C403.719 460.511 403.174 462.529 401.593 465.256L389.726 486.004L377.787 465.256C374.934 460.184 375.689 457.389 380.053 456.872L380.486 456.83L383.104 456.584V454.539L370.834 454.785L358.399 454.539V456.584L360.771 457.075C362.189 457.348 363.389 457.757 364.371 458.302C365.407 458.847 366.334 459.611 367.152 460.593C368.024 461.52 368.897 462.774 369.77 464.356L384.086 489.388V501.987C384.086 504.386 383.922 506.186 383.595 507.386C383.323 508.586 382.695 509.404 381.713 509.84C380.732 510.276 379.178 510.631 377.051 510.904L375.415 511.067V513.112L387.522 512.867H387.603L399.711 513.112V511.067L398.075 510.904C396.002 510.631 394.448 510.276 393.412 509.84C392.43 509.404 391.776 508.586 391.449 507.386C391.176 506.186 391.039 504.386 391.039 501.987V489.307ZM391.678 501.987C391.678 504.361 391.814 506.097 392.067 507.226C392.353 508.266 392.893 508.908 393.665 509.253C394.62 509.654 396.1 509.999 398.146 510.268L400.35 510.489V513.765L387.591 513.506H387.535L374.776 513.765V510.489L376.987 510.268C379.091 509.997 380.563 509.652 381.454 509.257C382.223 508.915 382.736 508.28 382.972 507.244L382.975 507.231L382.979 507.218C383.283 506.103 383.447 504.372 383.447 501.987V489.558L369.21 464.665C368.407 463.209 367.616 462.058 366.842 461.199L366.687 461.031L366.673 461.016L366.661 461.002C365.94 460.137 365.136 459.46 364.251 458.964L364.073 458.868L364.067 458.864L364.06 458.861C363.152 458.356 362.02 457.966 360.65 457.702L360.641 457.701L357.76 457.104V453.887L370.833 454.145L383.743 453.887V457.166L380.546 457.466L380.538 457.466C378.246 457.651 377.189 458.394 376.861 459.417C376.685 459.968 376.681 460.692 376.918 461.626C377.155 462.558 377.623 463.659 378.341 464.937L389.724 484.719L401.038 464.939L401.04 464.935C401.815 463.598 402.318 462.465 402.571 461.53C402.825 460.59 402.811 459.907 402.63 459.426L402.625 459.412L402.62 459.397C402.332 458.496 401.335 457.777 399.132 457.513L398.675 457.466L398.664 457.465L395.718 457.161V453.875L407.149 454.308L416.466 453.869V457.116L413.735 457.622C412.648 457.829 411.707 458.162 410.905 458.614L410.899 458.617L410.892 458.62C410.157 459.013 409.425 459.613 408.7 460.441C408.026 461.219 407.286 462.271 406.482 463.609L406.483 463.61L392.069 488.794L392.308 489.21H391.831L391.678 489.477V501.987Z" fill="#6F6C43"/>
<path d="M365.965 510.904C363.893 510.685 362.203 510.004 360.894 508.858C359.639 507.659 358.44 505.641 357.294 502.805L337.824 454.376H335.37L315.409 502.805C314.646 504.714 313.828 506.241 312.955 507.386C312.083 508.477 311.019 509.295 309.765 509.84L309.525 509.941C308.307 510.433 306.779 510.781 304.938 510.985L304.202 511.067V513.112L314.1 512.867L324.49 513.112V511.067L322.853 510.904C320.836 510.686 319.363 510.331 318.436 509.84C317.509 509.349 317.072 508.558 317.127 507.468C317.181 506.323 317.618 504.741 318.436 502.723L322.823 492.088H345.956L350.177 502.723C351.267 505.559 351.513 507.577 350.913 508.777C350.368 509.922 348.732 510.631 346.005 510.904L344.368 511.067V513.112L357.458 512.867L367.602 513.112V511.067L365.965 510.904ZM344.917 489.47H323.904L334.615 463.509L344.917 489.47ZM324.859 488.831H343.977L334.603 465.213L324.859 488.831ZM368.241 513.767L357.454 513.506L343.729 513.764V510.489L345.941 510.268C347.27 510.135 348.289 509.899 349.023 509.581C349.756 509.263 350.153 508.888 350.336 508.502L350.341 508.491C350.563 508.047 350.66 507.385 350.545 506.44C350.431 505.503 350.115 504.343 349.581 502.953L345.523 492.728H323.251L319.027 502.967C318.217 504.965 317.815 506.464 317.765 507.498V507.5C317.743 507.951 317.823 508.299 317.973 508.571C318.103 508.807 318.304 509.019 318.602 509.2L318.735 509.275C319.551 509.707 320.922 510.052 322.917 510.268L325.129 510.489V513.767L314.1 513.506L303.562 513.768V510.495L304.867 510.351C306.792 510.137 308.334 509.765 309.51 509.254C310.667 508.751 311.647 507.998 312.456 506.987C313.279 505.903 314.068 504.437 314.816 502.568L314.818 502.561L334.942 453.737H338.256L338.417 454.137L357.887 502.566C359.018 505.367 360.175 507.283 361.329 508.39C362.518 509.424 364.071 510.061 366.029 510.268L368.241 510.489V513.767Z" fill="#6F6C43"/>
<path d="M308.87 482.763C308.87 464.402 297.772 455.078 275.576 454.791L274.511 454.784V454.145C286.034 454.145 294.795 456.488 300.684 461.283C306.597 466.098 309.509 473.299 309.509 482.763L309.505 483.336C309.428 489.243 308.155 494.451 305.665 498.943C303.099 503.574 299.495 507.178 294.864 509.745L294.858 509.748C290.222 512.261 284.796 513.506 278.601 513.506H262.907L250.148 513.765V510.489L252.359 510.268C254.462 510.052 255.929 509.734 256.815 509.343C257.658 508.942 258.194 508.268 258.426 507.244L258.429 507.231L258.433 507.218C258.737 506.103 258.901 504.372 258.901 501.987V465.664C258.901 463.223 258.737 461.466 258.433 460.352L258.429 460.339L258.426 460.326C258.206 459.354 257.741 458.736 257.05 458.381L256.909 458.313C256.023 457.92 254.553 457.6 252.442 457.383L250.23 457.162V453.887L262.989 454.145H274.511V454.784H262.976L250.869 454.539V456.584L252.505 456.748C254.631 456.966 256.186 457.293 257.168 457.729C258.149 458.165 258.777 458.984 259.049 460.184C259.377 461.384 259.541 463.21 259.541 465.664V501.987L259.532 502.859C259.497 504.827 259.336 506.336 259.049 507.386C258.777 508.586 258.122 509.431 257.086 509.922C256.104 510.358 254.55 510.685 252.423 510.904L250.787 511.067V513.112L262.895 512.867H278.601C284.518 512.867 289.694 511.716 294.127 509.413L294.553 509.186C298.938 506.756 302.377 503.378 304.868 499.054L305.107 498.633C307.537 494.247 308.79 489.146 308.866 483.327L308.87 482.763ZM278.929 509.774V510.413H271.975V509.774H278.929ZM300.377 483.335C300.377 474.909 298.525 468.678 294.928 464.53L294.575 464.135C290.875 460.131 285.266 458.012 277.629 457.884L276.883 457.878H267.215V500.923L267.219 501.541C267.267 504.559 267.671 506.643 268.356 507.884C269.098 509.133 270.263 509.774 271.975 509.774V510.413L271.623 510.404C269.952 510.321 268.706 509.633 267.886 508.34L267.803 508.204C267.036 506.824 266.628 504.604 266.58 501.546L266.576 500.923V457.239H276.883C285.01 457.239 291.063 459.393 295.045 463.701C299.026 468.01 301.016 474.554 301.016 483.335C301.016 492.116 299.107 498.824 295.29 503.46C291.527 508.095 286.073 510.413 278.929 510.413V509.774C285.922 509.774 291.176 507.513 294.794 503.056L294.797 503.053C298.485 498.575 300.377 492.034 300.377 483.335Z" fill="#6F6C43"/>
<path d="M187.712 492.022L188.725 496.351C189.304 498.669 190.334 500.944 191.822 503.178C193.353 505.396 195.251 507.215 197.52 508.641C199.811 510.047 202.42 510.756 205.366 510.756V511.395L204.797 511.386C201.973 511.3 199.435 510.566 197.186 509.186C194.84 507.713 192.877 505.832 191.296 503.541C189.769 501.251 188.705 498.906 188.105 496.506L187.205 492.661H185.16L185.406 503.214L184.996 512.867H187.041L187.287 511.64C187.43 510.972 187.615 510.367 187.842 509.824L187.941 509.595C188.269 508.94 188.814 508.613 189.577 508.613C190.177 508.613 190.859 508.777 191.623 509.104C192.441 509.431 193.45 509.922 194.65 510.577C196.068 511.286 197.649 511.995 199.394 512.704C201.082 513.368 202.936 513.721 204.959 513.763L205.366 513.767C208.366 513.767 211.065 513.112 213.465 511.804C215.919 510.44 217.855 508.531 219.273 506.077C220.654 503.776 221.388 501.14 221.474 498.168L221.482 497.57C221.482 494.655 220.955 492.196 219.9 490.192L219.683 489.798C218.537 487.725 216.873 485.925 214.692 484.398C212.565 482.817 210.002 481.29 207.003 479.817L203.648 478.181C200.431 476.599 197.813 474.936 195.795 473.191C193.84 471.447 192.832 469.089 192.771 466.117L192.768 465.828C192.768 463.028 193.689 460.714 195.532 458.886L195.713 458.711C197.731 456.857 200.349 455.93 203.567 455.93L203.974 455.937C206.003 456.004 207.912 456.574 209.702 457.647L209.373 458.195C207.562 457.108 205.63 456.569 203.567 456.569C200.483 456.569 198.031 457.452 196.152 459.176L195.983 459.339C194.27 461.038 193.407 463.185 193.407 465.828L193.41 466.103C193.468 468.922 194.415 471.1 196.213 472.708C198.178 474.407 200.745 476.042 203.929 477.607L207.283 479.243L207.284 479.244C210.303 480.726 212.897 482.269 215.059 483.875C217.306 485.448 219.038 487.315 220.235 489.478C221.506 491.672 222.121 494.381 222.121 497.57L222.112 498.187C222.023 501.256 221.264 504 219.821 506.405C218.346 508.954 216.329 510.944 213.776 512.362L213.771 512.365C211.269 513.73 208.462 514.406 205.366 514.406C203.255 514.406 201.303 514.084 199.515 513.433L199.16 513.298L199.154 513.296C197.616 512.671 196.201 512.045 194.909 511.417L194.364 511.148L194.354 511.143L194.343 511.138C193.304 510.571 192.42 510.134 191.689 509.823L191.385 509.697L191.378 509.695L191.371 509.692C190.659 509.386 190.064 509.252 189.577 509.252C189.288 509.252 189.08 509.314 188.924 509.407C188.773 509.498 188.634 509.642 188.517 509.873C188.269 510.421 188.067 511.053 187.912 511.774L187.912 511.773L187.566 513.506H184.33L184.766 503.21L184.506 492.022H187.712ZM214.953 500.923C214.953 498.713 214.493 496.837 213.598 495.272L213.414 494.963L213.408 494.953L213.402 494.943C212.481 493.345 211.143 491.889 209.368 490.58L209.007 490.321L209 490.316C207.199 489.014 205.01 487.752 202.43 486.531L201.908 486.288L201.901 486.285L198.465 484.648L198.463 484.647C194.457 482.724 191.386 480.598 189.293 478.253L189.093 478.025L189.083 478.013C187.009 475.478 185.994 472.272 185.994 468.446C185.994 465.446 186.731 462.762 188.22 460.414C189.702 458.078 191.725 456.256 194.277 454.952L194.282 454.949C196.892 453.644 199.855 453 203.157 453C205.303 453 207.166 453.269 208.728 453.828L209.036 453.944C210.57 454.547 211.79 455.073 212.687 455.522C214.085 456.22 215.092 456.518 215.755 456.518V457.157L215.599 457.152C214.797 457.111 213.731 456.758 212.401 456.093C211.747 455.766 210.909 455.393 209.886 454.974L208.802 454.539C207.37 453.977 205.627 453.677 203.572 453.642L203.157 453.639C199.94 453.639 197.077 454.267 194.568 455.521C192.114 456.775 190.178 458.52 188.76 460.756L188.502 461.179C187.256 463.314 186.633 465.736 186.633 468.446L186.635 468.792C186.695 472.345 187.675 475.284 189.577 477.608C191.595 479.954 194.649 482.108 198.74 484.071L202.176 485.707C205.011 487.016 207.412 488.38 209.375 489.798C211.393 491.216 212.92 492.825 213.956 494.624C215.047 496.369 215.592 498.469 215.592 500.923C215.592 503.377 215.074 505.368 214.038 506.895C213.056 508.422 211.775 509.568 210.193 510.331L209.905 510.46C208.464 511.083 206.951 511.395 205.366 511.395V510.756C206.964 510.756 208.481 510.421 209.924 509.751C211.391 509.041 212.582 507.978 213.5 506.55L213.504 506.543L213.509 506.536C214.453 505.145 214.953 503.291 214.953 500.923ZM220.015 453.982L219.749 462.481L219.926 471.049H216.654L216.593 470.478C216.274 467.501 215.454 465.01 214.154 462.982L214.15 462.977C212.917 461.003 211.441 459.486 209.726 458.409L209.38 458.2L209.373 458.195L209.702 457.647C211.665 458.793 213.328 460.456 214.692 462.638C215.97 464.632 216.794 467.033 217.161 469.842L217.228 470.41H219.273L219.11 462.474L219.355 454.621H217.31C217.147 456.311 216.628 457.157 215.755 457.157V456.518C215.936 456.518 216.092 456.452 216.254 456.189C216.438 455.888 216.596 455.367 216.674 454.559L216.73 453.982H220.015Z" fill="#6F6C43"/>
<path d="M168.148 465.664C168.148 463.21 168.284 461.411 168.557 460.266C168.864 459.141 169.458 458.351 170.34 457.898L170.52 457.812C171.557 457.321 173.111 456.966 175.183 456.748L176.819 456.584V454.539L164.712 454.784L152.523 454.539V456.584L154.159 456.748C156.286 456.966 157.84 457.321 158.822 457.812C159.803 458.248 160.431 459.066 160.703 460.266C161.031 461.411 161.195 463.21 161.195 465.664V501.987L161.187 502.859C161.151 504.827 160.99 506.336 160.703 507.386C160.431 508.586 159.803 509.404 158.822 509.84C157.84 510.276 156.286 510.631 154.159 510.904L152.523 511.067V513.112L164.712 512.867L176.819 513.112V511.067L175.183 510.904C173.241 510.648 171.753 510.321 170.721 509.921L170.52 509.84C169.539 509.404 168.884 508.586 168.557 507.386C168.318 506.336 168.184 504.827 168.154 502.859L168.148 501.987V465.664ZM168.787 501.987L168.793 502.852C168.823 504.793 168.955 506.246 169.178 507.232C169.464 508.27 170.005 508.91 170.777 509.255C171.731 509.655 173.211 509.998 175.253 510.268L177.458 510.489V513.765L164.712 513.506L151.884 513.765V510.489L154.095 510.268C156.2 509.997 157.672 509.652 158.563 509.257C159.332 508.915 159.845 508.28 160.081 507.244L160.083 507.231L160.087 507.218C160.391 506.103 160.556 504.372 160.556 501.987V465.664C160.556 463.221 160.39 461.496 160.089 460.441L160.084 460.424L160.081 460.407C159.86 459.436 159.395 458.818 158.704 458.463L158.563 458.395L158.549 458.389L158.536 458.383C157.661 457.946 156.203 457.6 154.095 457.383L151.884 457.162V453.887L164.712 454.145L177.458 453.887V457.162L175.246 457.383C173.199 457.599 171.731 457.945 170.794 458.389L170.78 458.395C170.005 458.74 169.462 459.382 169.176 460.424C168.923 461.493 168.787 463.227 168.787 465.664V501.987Z" fill="#6F6C43"/>
<path d="M130.568 509.856V510.495H124.433V509.856H130.568ZM114.862 498.797V464.683C114.862 462.843 115.006 461.409 115.293 460.384L115.353 460.184C115.71 459.161 116.308 458.402 117.145 457.907L117.316 457.812C118.185 457.351 119.39 457.035 120.93 456.862L121.243 456.83L123.533 456.584V454.539L111.508 454.784L99.2368 454.539V456.584L100.873 456.748C102.999 456.966 104.554 457.293 105.536 457.729C106.517 458.165 107.145 458.984 107.417 460.184C107.744 461.384 107.909 463.21 107.909 465.664V501.987L107.9 502.878C107.865 504.888 107.704 506.418 107.417 507.468C107.145 508.668 106.517 509.486 105.536 509.922C104.554 510.358 103 510.685 100.873 510.904L99.2368 511.067V513.112L111.344 512.867L145.54 513.112L146.357 495.688H144.558C144.121 500.869 142.785 504.632 140.549 506.977C138.367 509.322 135.04 510.495 130.568 510.495V509.856C134.935 509.856 138.062 508.712 140.081 506.542L140.086 506.536C142.177 504.343 143.49 500.752 143.921 495.634L143.97 495.049H147.027L146.149 513.756L111.352 513.506L98.5977 513.765V510.489L100.809 510.268C102.921 510.051 104.391 509.732 105.277 509.338C106.045 508.997 106.559 508.362 106.794 507.326L106.797 507.313L106.801 507.3C107.105 506.185 107.269 504.428 107.269 501.987V465.664C107.269 463.223 107.105 461.466 106.801 460.352L106.797 460.339L106.794 460.326C106.574 459.354 106.108 458.736 105.418 458.381L105.277 458.313C104.391 457.92 102.921 457.6 100.809 457.383L98.5977 457.162V453.887L111.507 454.145L124.172 453.887V457.159L121.311 457.465L121.304 457.466C119.652 457.626 118.437 457.941 117.615 458.376C116.848 458.783 116.294 459.435 115.959 460.385C115.663 461.328 115.501 462.748 115.501 464.683V498.797L115.504 499.386C115.53 502.096 115.744 504.183 116.127 505.671L116.212 505.981C116.66 507.523 117.475 508.496 118.629 509.006C119.931 509.557 121.849 509.856 124.433 509.856V510.495L123.949 510.491C121.724 510.458 119.959 510.196 118.652 509.704L118.38 509.595C117.016 508.995 116.089 507.85 115.598 506.159C115.138 504.574 114.893 502.318 114.865 499.391L114.862 498.797Z" fill="#6F6C43"/>
<path d="M99.4604 483.662C99.4603 479.299 98.7518 475.291 97.3339 471.637C95.9705 467.983 94.0066 464.819 91.4433 462.147C88.9346 459.42 85.9349 457.32 82.4446 455.848C79.2235 454.468 75.6909 453.734 71.8467 453.648L71.0734 453.639C66.9287 453.639 63.1109 454.375 59.6205 455.848C56.1847 457.32 53.185 459.42 50.6217 462.147C48.113 464.819 46.1498 467.983 44.7318 471.637C43.3684 475.291 42.6865 479.299 42.6865 483.662C42.6865 488.025 43.3683 492.061 44.7318 495.77C46.1497 499.423 48.1131 502.614 50.6217 505.341C53.185 508.013 56.1847 510.086 59.6205 511.558C62.8927 512.939 66.4527 513.672 70.3001 513.758L71.0734 513.767C75.2182 513.767 79.0087 513.031 82.4446 511.558C85.935 510.086 88.9346 508.013 91.4433 505.341C94.0066 502.614 95.9705 499.424 97.3339 495.77C98.7519 492.061 99.4604 488.025 99.4604 483.662ZM90.4772 483.662C90.4772 474.531 88.8144 467.798 85.5889 463.361C82.391 458.962 77.5908 456.732 71.0734 456.732C64.5562 456.732 59.7564 458.963 56.5585 463.361C53.3331 467.798 51.6703 474.531 51.6703 483.662L51.6753 484.514C51.7759 493.241 53.4341 499.714 56.5591 504.025C59.7574 508.437 64.557 510.674 71.0734 510.674V511.313L70.4524 511.306C57.7104 511.027 51.2384 502.098 51.0362 484.519L51.0312 483.662C51.0312 465.283 57.7119 456.093 71.0734 456.093C84.4351 456.093 91.1162 465.283 91.1163 483.662C91.1163 502.096 84.4352 511.313 71.0734 511.313V510.674C77.59 510.674 82.3901 508.437 85.5883 504.025C88.8142 499.575 90.4772 492.821 90.4772 483.662ZM100.099 483.662C100.099 488.093 99.379 492.205 97.9319 495.992C96.5401 499.722 94.5333 502.987 91.9096 505.778C89.3384 508.517 86.2646 510.639 82.6961 512.145L82.6967 512.146C79.173 513.656 75.2954 514.406 71.0734 514.406C66.8514 514.406 62.9482 513.656 59.3721 512.147L59.369 512.146C55.855 510.64 52.7837 508.518 50.1605 505.783L50.1561 505.779L50.1518 505.774C47.7462 503.159 45.8339 500.13 44.4135 496.693L44.1363 496L44.1338 495.995L44.132 495.99C42.74 492.204 42.0474 488.092 42.0474 483.662C42.0474 479.232 42.7402 475.147 44.1332 471.413L44.1363 471.405C45.5819 467.68 47.5875 464.445 50.1561 461.709C52.7796 458.918 55.8522 456.768 59.369 455.261L59.3721 455.259C62.9482 453.75 66.8514 453 71.0734 453C75.2937 453 79.1698 453.75 82.6923 455.259H82.693C86.2657 456.766 89.3418 458.918 91.9139 461.714H91.9133C94.5338 464.449 96.5388 467.682 97.9294 471.405C99.379 475.141 100.099 479.229 100.099 483.662Z" fill="#6F6C43"/>
<path d="M3.38219 492.022L4.39516 496.351C4.97469 498.669 6.0042 500.944 7.49213 503.178C9.02346 505.396 10.9217 507.215 13.1905 508.641C15.481 510.047 18.0901 510.756 21.0365 510.756V511.395L20.4679 511.386C17.643 511.3 15.1056 510.566 12.8559 509.186C10.5109 507.713 8.54756 505.832 6.96598 503.541C5.43897 501.251 4.37532 498.906 3.7754 496.506L2.87539 492.661H0.830101L1.07601 503.214L0.666577 512.867H2.71187L2.95716 511.64C3.1003 510.972 3.28538 510.367 3.51201 509.824L3.61187 509.595C3.93907 508.94 4.48435 508.613 5.24773 508.613C5.84765 508.613 6.5295 508.777 7.29303 509.104C8.11109 509.431 9.12025 509.922 10.3201 510.577C11.738 511.286 13.3196 511.995 15.0648 512.704C16.7519 513.368 18.6069 513.721 20.6296 513.763L21.0365 513.767C24.036 513.767 26.7357 513.112 29.1353 511.804C31.5894 510.44 33.5255 508.531 34.9435 506.077C36.324 503.776 37.0579 501.14 37.1442 498.168L37.1523 497.57C37.1523 494.655 36.6253 492.196 35.5707 490.192L35.3529 489.798C34.2076 487.725 32.5438 485.925 30.3623 484.398C28.2354 482.817 25.6724 481.29 22.673 479.817L19.3189 478.181C16.1012 476.599 13.4833 474.936 11.4654 473.191C9.51047 471.447 8.50247 469.089 8.44144 466.117L8.43832 465.828C8.43832 463.028 9.35945 460.714 11.202 458.886L11.3836 458.711C13.4015 456.857 16.0195 455.93 19.2371 455.93L19.644 455.937C21.6733 456.004 23.5828 456.574 25.3724 457.647L25.0434 458.195C23.2319 457.108 21.3002 456.569 19.2371 456.569C16.1534 456.569 13.7013 457.452 11.8224 459.176L11.6539 459.339C9.93999 461.038 9.07743 463.185 9.07743 465.828L9.08055 466.103C9.13803 468.922 10.0852 471.1 11.8835 472.708C13.8484 474.407 16.4157 476.042 19.5991 477.607L22.9532 479.243L22.9545 479.244C25.9736 480.726 28.5671 482.269 30.7293 483.875C32.9768 485.448 34.7082 487.315 35.9059 489.478C37.1764 491.672 37.7914 494.381 37.7914 497.57L37.7827 498.187C37.6935 501.256 36.9344 504 35.4915 506.405C34.0167 508.954 31.9994 510.944 29.4461 512.362L29.4417 512.365C26.9393 513.73 24.1324 514.406 21.0365 514.406C18.9257 514.406 16.9734 514.084 15.1858 513.433L14.8307 513.298L14.8245 513.296C13.2863 512.671 11.871 512.045 10.5797 511.417L10.0342 511.148L10.0242 511.143L10.0136 511.138C8.9741 510.571 8.09059 510.134 7.35981 509.823L7.05585 509.697L7.04837 509.695L7.0415 509.692C6.32893 509.386 5.73463 509.252 5.24773 509.252C4.95859 509.252 4.74995 509.314 4.59489 509.407C4.44325 509.498 4.30405 509.642 4.18733 509.873C3.93955 510.421 3.73697 511.053 3.58254 511.774L3.58192 511.773L3.23614 513.506H0L0.436271 503.21L0.176006 492.022H3.38219ZM30.6232 500.923C30.6232 498.713 30.1634 496.837 29.2688 495.272L29.0841 494.963L29.0785 494.953L29.0722 494.943C28.1518 493.345 26.8136 491.889 25.0385 490.58L24.6777 490.321L24.6708 490.316C22.869 489.014 20.6807 487.752 18.0999 486.531L17.5782 486.288L17.5713 486.285L14.1354 484.648L14.1336 484.647C10.1271 482.724 7.0565 480.598 4.96313 478.253L4.7634 478.025L4.75342 478.013C2.67926 475.478 1.66396 472.272 1.66395 468.446C1.66395 465.446 2.40146 462.762 3.89024 460.414C5.37198 458.078 7.39589 456.256 9.94748 454.952L9.95247 454.949C12.5621 453.644 15.5255 453 18.8277 453C20.9736 453 22.8362 453.269 24.3981 453.828L24.7064 453.944C26.2408 454.547 27.4605 455.073 28.3576 455.522C29.7549 456.22 30.7623 456.518 31.4259 456.518V457.157L31.2692 457.152C30.4671 457.111 29.4011 456.758 28.0718 456.093C27.4173 455.766 26.5789 455.393 25.5565 454.974L24.4724 454.539C23.0407 453.977 21.2976 453.677 19.2427 453.642L18.8277 453.639C15.61 453.639 12.747 454.267 10.2383 455.521C7.78418 456.775 5.84809 458.52 4.43012 460.756L4.17235 461.179C2.92607 463.314 2.30306 465.736 2.30306 468.446L2.30556 468.792C2.36501 472.345 3.34579 475.284 5.24773 477.608C7.26561 479.954 10.3198 482.108 14.41 484.071L17.8459 485.707C20.6819 487.016 23.082 488.38 25.0453 489.798C27.0631 491.216 28.5903 492.825 29.6265 494.624C30.7172 496.369 31.2623 498.469 31.2623 500.923C31.2623 503.377 30.7445 505.368 29.7082 506.895C28.7266 508.422 27.445 509.568 25.8636 510.331L25.5758 510.46C24.1347 511.083 22.6215 511.395 21.0365 511.395V510.756C22.6345 510.756 24.1516 510.421 25.5939 509.751C27.0618 509.041 28.2524 507.978 29.1709 506.55L29.1746 506.543L29.1796 506.536C30.1237 505.145 30.6232 503.291 30.6232 500.923ZM35.685 453.982L35.4191 462.481L35.5963 471.049H32.3246L32.2635 470.478C31.9445 467.501 31.1239 465.01 29.8243 462.982L29.8206 462.977C28.5871 461.003 27.111 459.486 25.3967 458.409L25.0503 458.2L25.0434 458.195L25.3724 457.647C27.3357 458.793 28.9989 460.456 30.3623 462.638C31.6406 464.632 32.4639 467.033 32.8314 469.842L32.8988 470.41H34.9435L34.78 462.474L35.0259 454.621H32.9806C32.817 456.311 32.2984 457.157 31.4259 457.157V456.518C31.606 456.518 31.7623 456.452 31.9239 456.189C32.1083 455.888 32.2664 455.367 32.3446 454.559L32.4001 453.982H35.685Z" fill="#6F6C43"/>
<path d="M208 1.5C274.55 1.5 328.5 55.4497 328.5 122V399.99C328.5 411.317 319.317 420.5 307.99 420.5H108.01C96.6826 420.5 87.5 411.317 87.5 399.99V122C87.5 55.4497 141.45 1.5 208 1.5Z" stroke="#6F6C43" stroke-width="3"/>
<path d="M227.572 94.8031C228.082 95.0764 228.276 95.7099 227.997 96.217C221.697 107.665 210.526 122.443 205.349 129.288C194.35 143.832 194.564 159.895 196.602 166.207C198.593 172.069 199.768 180.858 200.689 189.416C200.842 190.837 200.988 192.251 201.129 193.646C201.235 192.845 201.354 192.034 201.49 191.213C203.806 177.169 212.851 152.91 232.426 140.06C237.849 136.033 240.367 131.606 242.277 127.224C244.03 123.202 245.351 118.945 248.022 115.303C248.365 114.836 249.027 114.77 249.476 115.136C249.924 115.502 249.989 116.161 249.648 116.629C247.227 119.958 246.063 123.784 244.198 128.061C243.242 130.256 242.12 132.5 240.569 134.718C244.486 132.382 248.779 130.452 254.117 129.857C254.692 129.793 255.196 130.227 255.24 130.805C255.284 131.382 254.85 131.883 254.275 131.949C245.777 132.914 240.192 137.476 233.603 141.795C217.322 152.468 208.48 171.462 204.891 185.322C205 185.198 205.11 185.075 205.22 184.953C206.923 183.083 208.947 181.431 210.683 180.499C211.264 180.121 211.375 179.949 211.407 179.878C211.444 179.799 211.478 179.655 211.426 179.033C211.322 177.777 210.498 175.374 212.018 172.945L212.804 171.689L213.726 172.848C214.429 173.731 214.862 174.677 215.101 175.522C215.333 176.346 215.4 177.145 215.296 177.742C215.251 177.997 215.191 178.262 215.105 178.535C215.73 178.266 216.289 178.032 216.664 177.888C217.332 177.567 217.37 177.338 217.388 177.225C217.408 177.102 217.405 176.921 217.356 176.63C217.306 176.332 217.226 176.01 217.126 175.579C216.886 174.551 216.565 173.412 216.514 172.22C216.46 170.969 216.694 169.659 217.479 168.151L218.178 166.809L219.188 167.934C220.129 168.98 220.748 170.122 221.119 171.149C221.484 172.157 221.635 173.125 221.569 173.836C221.522 174.347 221.513 175.228 221.229 176.146C221.678 175.904 221.896 175.678 222.04 175.439C222.234 175.116 222.366 174.654 222.501 173.803C222.57 173.366 222.574 172.881 222.558 172.299C222.544 171.743 222.511 171.076 222.536 170.404C222.589 169.008 222.893 167.451 224.112 165.885L225.002 164.741L225.809 165.946C226.639 167.184 227.094 168.482 227.298 169.624C227.499 170.746 227.471 171.791 227.259 172.525C227.126 172.988 226.935 173.468 226.674 173.952C226.816 173.889 226.957 173.825 227.098 173.76C227.241 173.68 227.4 173.576 227.57 173.451C227.735 173.309 227.846 173.158 227.931 172.999C228.097 172.685 228.203 172.257 228.275 171.593C228.317 171.207 228.301 170.778 228.262 170.253C228.226 169.756 228.168 169.151 228.162 168.541C228.15 167.269 228.357 165.832 229.398 164.36L230.243 163.165L231.102 164.349C231.902 165.452 232.367 166.619 232.601 167.653C232.829 168.666 232.851 169.624 232.688 170.312C232.641 170.51 232.571 170.711 232.484 170.909C232.521 170.886 232.558 170.863 232.594 170.84C233.019 170.466 233.259 170.242 233.434 169.986C233.594 169.752 233.73 169.444 233.801 168.871C233.843 168.533 233.834 168.154 233.806 167.682C233.78 167.235 233.734 166.684 233.737 166.129C233.742 164.967 233.952 163.65 234.928 162.309L235.787 161.129L236.63 162.32C237.35 163.335 237.761 164.406 237.962 165.353C238.039 165.72 238.087 166.079 238.107 166.419C238.297 166.22 238.483 166.017 238.666 165.811C239.225 165.108 239.46 164.284 239.575 163.448C239.633 163.023 239.657 162.623 239.685 162.224C239.709 161.866 239.74 161.428 239.837 161.067C239.997 160.468 240.2 159.84 240.645 159.166C241.085 158.501 241.721 157.851 242.675 157.119L243.776 156.274L244.288 157.563C244.672 158.532 244.617 159.69 244.462 160.606C244.305 161.536 244.006 162.435 243.709 162.966C243.181 163.909 242.128 165.331 240.23 167.207C238.663 168.973 236.873 170.481 234.964 171.792C234.575 172.059 234.181 172.317 233.783 172.569C232.577 173.33 231.332 174.022 230.071 174.659C229.387 175.004 228.698 175.334 228.008 175.649C226.281 176.439 224.543 177.144 222.853 177.796C222.499 177.932 222.148 178.067 221.799 178.199C220.262 178.781 218.855 179.296 217.454 179.83C216.793 180.081 215.356 180.706 214.055 181.282C213.412 181.566 212.811 181.835 212.371 182.032C212.151 182.131 211.971 182.212 211.846 182.268C211.784 182.296 211.735 182.318 211.702 182.333C211.697 182.335 211.691 182.338 211.686 182.34C210.21 183.129 208.362 184.615 206.77 186.364C205.167 188.126 203.944 190.021 203.551 191.595C202.237 199.595 202.436 206.621 203.26 211.763C206.208 227.916 208.758 241.107 207.796 261.497C207.503 267.709 206.884 274.584 205.854 282.412C206.888 280.972 208.064 279.734 209.262 278.619C210.672 277.308 212.169 276.119 213.442 275.029C214.735 273.923 215.831 272.893 216.63 271.792C217.255 270.758 217.48 270.156 217.542 269.618C217.606 269.056 217.509 268.451 217.239 267.329C216.579 264.59 214.942 261.144 215.931 256.328L216.347 254.303L217.734 255.835C219.974 258.306 221.005 261.705 221.11 263.485C221.167 264.431 221.158 265.433 220.986 266.534C221.903 265.446 222.757 264.451 223.281 263.883C224.11 262.828 224.303 262.011 224.245 261.183C224.179 260.238 223.795 259.231 223.255 257.72C221.866 253.839 220.348 250.473 221.256 244.365L221.556 242.343L223.022 243.767C225.99 246.648 227.51 250.808 227.761 253.002C227.917 254.366 228.261 256.258 228.033 258.34C228.013 258.522 227.988 258.706 227.959 258.891C228.056 258.787 228.154 258.683 228.251 258.579C228.29 258.528 228.33 258.478 228.368 258.428C229.013 257.577 229.349 256.818 229.517 255.943C229.705 254.966 229.696 253.795 229.576 252.097C229.506 251.101 229.324 250.081 229.105 248.977C228.89 247.891 228.634 246.71 228.446 245.478C228.065 242.983 227.94 240.184 228.863 236.924L229.432 234.913L230.703 236.572C233.494 240.215 234.56 244.972 234.53 247.374C234.512 248.855 234.31 250.554 233.79 252.378C234.249 251.835 234.705 251.285 235.158 250.726C235.342 250.46 235.538 250.132 235.741 249.755C236.329 248.487 236.373 247.031 236.154 244.91C236.063 244.027 235.872 243.125 235.643 242.144C235.419 241.181 235.154 240.128 234.949 239.027C234.532 236.793 234.337 234.272 235.074 231.293L235.574 229.274L236.899 230.877C239.528 234.057 240.631 238.308 240.675 240.486C240.694 241.434 240.494 242.645 240.174 243.918C240.529 243.379 240.879 242.833 241.223 242.279C241.285 242.138 241.347 242 241.407 241.865C241.733 241.124 241.97 240.535 242.122 239.89C242.3 239.132 242.37 238.255 242.25 236.962C242.176 236.17 242.012 235.358 241.815 234.47C241.621 233.599 241.39 232.64 241.214 231.641C240.856 229.609 240.701 227.313 241.398 224.612L241.918 222.594L243.228 224.215C245.171 226.621 246.169 229.671 246.473 231.784C246.769 231.013 247.051 230.228 247.318 229.43C247.883 227.504 247.891 225.54 247.741 223.765C247.666 222.875 247.553 222.053 247.454 221.3C247.359 220.574 247.27 219.864 247.27 219.287C247.27 218.129 247.312 217.001 247.604 215.695C247.896 214.39 248.428 212.952 249.363 211.132L250.31 209.291L251.234 211.144C251.923 212.528 252.224 214.472 252.333 216.191C252.443 217.931 252.367 219.624 252.203 220.59C251.879 222.493 251.062 225.623 249.304 230.101C249.017 230.959 248.713 231.801 248.394 232.627C248.619 232.476 248.853 232.337 249.099 232.211C250.751 231.365 254.28 230.792 257.604 232.125L259.063 232.71L257.962 233.832C256.103 235.726 254.193 236.534 252.41 237.004C251.543 237.232 250.683 237.386 249.933 237.537C249.162 237.693 248.485 237.849 247.865 238.086C246.846 238.476 246.226 238.89 245.735 239.367C245.316 239.773 244.967 240.246 244.536 240.877C244.44 241.019 244.342 241.164 244.242 241.312C243.953 241.815 243.66 242.312 243.362 242.802C244.408 242.086 245.42 241.598 246.579 241.392C248.547 241.041 252.416 241.611 255.587 244.104L256.81 245.065L255.46 245.838C253.005 247.243 250.768 247.465 248.76 247.372C247.781 247.327 246.828 247.204 245.987 247.114C245.122 247.022 244.354 246.963 243.628 247.009C242.436 247.086 241.67 247.323 241.03 247.667C240.484 247.961 239.996 248.348 239.38 248.879C239.26 248.984 239.137 249.091 239.012 249.2C238.296 250.152 237.569 251.081 236.835 251.986C237.881 251.431 238.898 251.078 240.024 250.971C242.201 250.764 246.423 251.741 249.747 254.771L250.901 255.824L249.489 256.492C246.687 257.82 244.208 257.861 241.999 257.576C240.919 257.437 239.875 257.215 238.942 257.038C237.986 256.856 237.129 256.718 236.307 256.703C234.963 256.679 234.081 256.874 233.332 257.205C232.697 257.485 232.123 257.875 231.402 258.409C231.254 258.52 231.104 258.634 230.95 258.749C230.57 259.161 230.192 259.57 229.816 259.974C229.683 260.117 229.55 260.259 229.418 260.4C229.432 260.397 229.447 260.394 229.461 260.391C231.265 260.018 232.803 260.253 234.045 260.447C236.043 260.758 239.649 262.592 242.107 266.041L243.044 267.356L241.461 267.677C236.082 268.765 233.087 266.925 229.786 265.316C228.603 264.74 227.679 264.462 226.905 264.458C226.193 264.455 225.526 264.683 224.818 265.309C224.305 265.865 223.436 266.879 222.493 267.998C224.231 267.579 225.71 267.78 226.757 268.023C229.152 268.579 231.521 270.384 233.44 273.047L234.384 274.355L232.805 274.686C230.585 275.15 228.777 274.73 227.236 274.138C226.486 273.849 225.769 273.507 225.143 273.224C224.496 272.932 223.928 272.694 223.376 272.547C222.311 272.264 221.366 272.013 220.483 272.031C219.785 272.046 219.153 272.231 218.576 272.767C218.489 272.856 218.402 272.947 218.315 273.04C217.363 274.347 216.111 275.504 214.805 276.622C213.449 277.782 212.061 278.879 210.69 280.154C208 282.657 205.605 285.653 204.743 290.187C202.893 302.232 201.577 312.542 197.701 329.662C194.529 343.669 194.887 353.755 196.522 362.794C197.001 365.445 197.552 367.952 198.119 370.25C198.213 369.448 198.346 368.648 198.518 367.848C199.589 362.883 202.167 358.01 206.291 353.093C207.006 352.078 207.248 351.508 207.313 351.021C207.382 350.51 207.281 349.95 206.972 348.852C206.232 346.218 204.341 342.786 205.481 338.029L205.903 336.266L207.22 337.511C209.766 339.918 210.962 343.257 211.085 345.043C211.154 346.032 211.142 347.114 210.888 348.331C212.071 347.125 213.206 345.986 213.872 345.367C214.82 344.334 215.011 343.567 214.951 342.821C214.878 341.93 214.454 340.973 213.833 339.486C212.255 335.705 210.503 332.377 211.546 326.359L211.855 324.573L213.249 325.732C216.618 328.534 218.37 332.609 218.662 334.797C218.838 336.114 219.237 337.992 218.972 340.053C218.94 340.308 218.897 340.565 218.844 340.824C219.074 340.613 219.305 340.401 219.534 340.19C219.579 340.14 219.624 340.091 219.668 340.042C220.405 339.21 220.776 338.481 220.962 337.656C221.17 336.727 221.162 335.607 221.026 333.951C220.947 332.991 220.742 332.005 220.493 330.928C220.248 329.871 219.955 328.712 219.74 327.504C219.302 325.05 219.158 322.287 220.22 319.073L220.788 317.352L221.996 318.703C225.178 322.262 226.413 326.934 226.378 329.328C226.355 330.876 226.096 332.656 225.423 334.564C226.088 333.895 226.749 333.216 227.406 332.523C227.614 332.265 227.837 331.946 228.066 331.58C228.72 330.369 228.768 328.984 228.522 326.94C228.42 326.091 228.204 325.219 227.944 324.262C227.689 323.325 227.386 322.291 227.151 321.211C226.673 319.014 226.447 316.522 227.296 313.58L227.799 311.839L229.057 313.143C232.052 316.247 233.329 320.422 233.379 322.596C233.404 323.663 233.108 325.049 232.658 326.472C233.222 325.754 233.775 325.024 234.315 324.279C234.393 324.128 234.469 323.98 234.545 323.835C234.903 323.134 235.161 322.579 235.327 321.975C235.524 321.258 235.603 320.424 235.468 319.179C235.385 318.418 235.201 317.634 234.976 316.768C234.756 315.921 234.492 314.979 234.29 313.998C233.878 311.997 233.698 309.725 234.502 307.056L235.025 305.32L236.268 306.639C238.661 309.176 239.811 312.469 240.054 314.566C240.477 313.647 240.877 312.709 241.251 311.751C241.885 309.901 241.895 308.011 241.725 306.293C241.64 305.429 241.512 304.631 241.399 303.894C241.291 303.188 241.187 302.483 241.187 301.904C241.187 300.767 241.235 299.65 241.574 298.355C241.911 297.065 242.522 295.65 243.59 293.871L244.503 292.35L245.395 293.883C246.193 295.255 246.539 297.179 246.664 298.868C246.79 300.578 246.703 302.246 246.513 303.208C246.141 305.081 245.206 308.147 243.201 312.522C242.861 313.391 242.502 314.243 242.124 315.079C242.478 314.849 242.85 314.647 243.248 314.472C245.071 313.673 249.003 313.121 252.713 314.396L254.427 314.985L253.062 316.177C250.961 318.011 248.817 318.784 246.825 319.234C245.848 319.454 244.881 319.602 244.019 319.751C243.136 319.904 242.347 320.059 241.619 320.298C240.429 320.687 239.702 321.104 239.13 321.579C238.65 321.979 238.251 322.44 237.763 323.054C237.652 323.194 237.54 323.337 237.424 323.483C237.075 324.005 236.718 324.52 236.357 325.029C237.678 324.21 238.899 323.671 240.306 323.456C242.456 323.128 246.789 323.659 250.366 326.068L251.869 327.081L250.242 327.878C247.493 329.226 245 329.438 242.753 329.348C241.648 329.305 240.577 329.186 239.61 329.098C238.622 329.008 237.727 328.948 236.872 328.995C235.478 329.071 234.566 329.311 233.803 329.662C233.164 329.956 232.597 330.342 231.896 330.86C231.756 330.965 231.613 331.072 231.467 331.181C230.644 332.119 229.809 333.032 228.966 333.923C230.253 333.305 231.467 332.92 232.812 332.811C235.198 332.617 239.942 333.538 243.704 336.477L245.132 337.593L243.453 338.274C240.317 339.547 237.551 339.587 235.073 339.313C233.853 339.178 232.677 338.964 231.606 338.79C230.515 338.612 229.517 338.474 228.555 338.459C226.987 338.434 225.939 338.63 225.047 338.967C224.302 339.249 223.632 339.64 222.809 340.163C222.638 340.273 222.464 340.385 222.286 340.499C221.852 340.904 221.419 341.304 220.988 341.701C220.865 341.814 220.742 341.927 220.619 342.039C220.682 342.027 220.744 342.016 220.807 342.005C222.806 341.65 224.511 341.872 225.926 342.061C228.114 342.353 232.189 344.105 234.991 347.474L236.15 348.867L234.364 349.177C228.346 350.22 225.018 348.468 221.237 346.89C219.881 346.324 218.784 346.034 217.836 346.03C216.939 346.026 216.123 346.279 215.295 346.907C214.722 347.439 213.761 348.399 212.713 349.464C212.745 349.457 212.777 349.45 212.809 349.443C214.759 349.028 216.419 349.219 217.601 349.454C220.247 349.981 222.921 351.706 225.115 354.314L226.282 355.701L224.498 356.02C222.043 356.46 220.042 356.066 218.313 355.496C217.467 355.217 216.661 354.887 215.941 354.608C215.203 354.323 214.539 354.084 213.888 353.936C212.686 353.662 211.566 353.405 210.511 353.424C209.641 353.44 208.866 353.644 208.181 354.19C208.082 354.276 207.983 354.365 207.884 354.456C203.928 359.177 201.548 363.743 200.567 368.289C199.586 372.844 199.992 377.45 201.722 382.272C203.081 386.056 204.372 388.821 205.313 390.33L203.727 394.973C202.671 393.28 200.285 386.972 198.906 383.129C197.777 379.985 195.431 372.396 193.77 363.216C192.117 354.072 191.97 343.119 194.216 333.13C194.484 329.733 193.675 327.652 192.368 325.847C191.687 324.906 190.861 324.026 189.917 323.052C189 322.104 187.975 321.07 186.958 319.865C186.858 319.773 186.759 319.684 186.66 319.597C185.975 319.051 185.199 318.846 184.328 318.83C183.273 318.811 182.154 319.068 180.951 319.342C180.3 319.49 179.637 319.729 178.898 320.015C178.179 320.293 177.373 320.624 176.527 320.902C174.797 321.472 172.797 321.866 170.341 321.427L168.557 321.107L169.724 319.72C171.918 317.112 174.593 315.387 177.239 314.86C178.42 314.625 180.081 314.434 182.03 314.85C182.062 314.857 182.094 314.863 182.126 314.871C181.078 313.805 180.118 312.846 179.545 312.314C178.716 311.685 177.901 311.433 177.003 311.436C176.055 311.44 174.958 311.73 173.602 312.296C169.822 313.875 166.494 315.627 160.475 314.584L158.689 314.274L159.848 312.881C162.65 309.512 166.725 307.76 168.914 307.467C170.329 307.278 172.034 307.056 174.032 307.411C174.095 307.422 174.157 307.434 174.22 307.446C174.098 307.333 173.974 307.221 173.851 307.107C173.421 306.711 172.988 306.31 172.553 305.905C172.376 305.792 172.201 305.68 172.03 305.569C171.208 305.046 170.537 304.656 169.792 304.374C168.9 304.037 167.853 303.841 166.285 303.865C165.322 303.88 164.324 304.019 163.233 304.196C162.162 304.37 160.986 304.585 159.767 304.72C157.289 304.993 154.523 304.953 151.387 303.681L149.707 302.999L151.135 301.884C154.897 298.945 159.641 298.023 162.028 298.217C163.372 298.327 164.586 298.711 165.873 299.33C165.03 298.439 164.195 297.525 163.372 296.588C163.225 296.478 163.081 296.37 162.94 296.264C162.24 295.748 161.674 295.362 161.036 295.068C160.273 294.717 159.362 294.478 157.967 294.401C157.112 294.354 156.217 294.415 155.229 294.505C154.262 294.593 153.191 294.711 152.087 294.755C149.84 294.844 147.346 294.633 144.597 293.285L142.97 292.487L144.473 291.475C148.05 289.065 152.384 288.534 154.534 288.862C155.94 289.077 157.161 289.616 158.482 290.435C158.121 289.927 157.765 289.411 157.415 288.889C157.3 288.744 157.189 288.603 157.079 288.463C156.59 287.849 156.19 287.386 155.709 286.986C155.138 286.51 154.41 286.094 153.22 285.704C152.493 285.466 151.703 285.31 150.821 285.158C149.959 285.009 148.992 284.861 148.014 284.64C146.022 284.19 143.878 283.417 141.778 281.583L140.412 280.392L142.126 279.803C145.836 278.528 149.769 279.079 151.591 279.878C151.99 280.053 152.361 280.256 152.715 280.485C152.337 279.65 151.978 278.798 151.639 277.93C149.633 273.554 148.698 270.488 148.327 268.614C148.136 267.652 148.049 265.984 148.176 264.275C148.301 262.585 148.646 260.661 149.445 259.289L150.337 257.756L151.249 259.277C152.317 261.057 152.928 262.471 153.266 263.761C153.604 265.056 153.652 266.173 153.652 267.31C153.652 267.889 153.548 268.595 153.44 269.301C153.328 270.037 153.2 270.835 153.114 271.699C152.944 273.418 152.955 275.308 153.588 277.158C153.962 278.116 154.362 279.054 154.785 279.973C155.028 277.875 156.178 274.582 158.571 272.045L159.814 270.727L160.337 272.462C161.141 275.132 160.961 277.404 160.549 279.404C160.347 280.386 160.083 281.328 159.863 282.174C159.638 283.041 159.455 283.824 159.372 284.585C159.236 285.83 159.315 286.665 159.512 287.382C159.678 287.985 159.935 288.539 160.293 289.238C160.369 289.384 160.446 289.534 160.525 289.686C161.065 290.43 161.617 291.161 162.181 291.879C161.731 290.456 161.435 289.069 161.46 288.002C161.511 285.828 162.787 281.653 165.782 278.55L167.04 277.245L167.543 278.987C168.392 281.928 168.167 284.42 167.688 286.618C167.453 287.697 167.15 288.732 166.895 289.669C166.635 290.626 166.42 291.497 166.317 292.347C166.071 294.391 166.119 295.776 166.773 296.988C167.003 297.353 167.225 297.671 167.433 297.929C168.089 298.622 168.751 299.302 169.416 299.97C168.743 298.063 168.484 296.283 168.461 294.734C168.426 292.341 169.661 287.668 172.843 284.11L174.051 282.759L174.619 284.48C175.681 287.694 175.537 290.456 175.099 292.91C174.884 294.118 174.592 295.278 174.347 296.335C174.097 297.411 173.893 298.398 173.814 299.357C173.678 301.014 173.669 302.134 173.877 303.062C174.063 303.887 174.434 304.616 175.171 305.448C175.215 305.498 175.26 305.547 175.305 305.596C175.535 305.808 175.765 306.019 175.995 306.23C175.942 305.971 175.899 305.714 175.867 305.46C175.603 303.399 176.001 301.52 176.177 300.204C176.469 298.015 178.222 293.94 181.59 291.138L182.984 289.98L183.293 291.765C184.337 297.784 182.585 301.112 181.006 304.893C180.385 306.38 179.961 307.336 179.889 308.227C179.828 308.974 180.019 309.74 180.967 310.774C181.633 311.392 182.768 312.531 183.951 313.737C183.697 312.52 183.685 311.439 183.754 310.45C183.878 308.664 185.073 305.325 187.619 302.918L188.936 301.673L189.359 303.435C190.498 308.192 188.607 311.625 187.867 314.259C187.559 315.357 187.458 315.917 187.526 316.427C187.592 316.914 187.833 317.483 188.545 318.496C189.509 319.639 190.479 320.618 191.423 321.594C192.365 322.566 193.288 323.541 194.067 324.618C194.651 325.426 195.149 326.284 195.531 327.238C198.723 312.719 201.047 300.45 202.674 289.849C204.375 278.776 205.317 269.527 205.7 261.439C205.558 257.147 202.631 254.383 198.6 250.277C198.591 250.268 198.578 250.257 198.562 250.243C198.521 250.206 198.46 250.151 198.382 250.081C198.226 249.941 198 249.74 197.724 249.494C197.172 249.001 196.417 248.33 195.607 247.616C193.976 246.177 192.155 244.591 191.295 243.911C189.51 242.498 187.678 241.089 185.724 239.549C185.278 239.197 184.829 238.842 184.378 238.481C182.222 236.761 180.023 234.942 177.874 232.997C177.016 232.22 176.165 231.423 175.327 230.604C173.784 229.093 172.286 227.506 170.872 225.83C170.405 225.277 169.947 224.714 169.499 224.141C167.297 221.322 165.348 218.258 163.814 214.897C161.836 211.201 160.906 208.597 160.534 206.988C160.337 206.14 160.252 204.701 160.379 203.24C160.503 201.796 160.85 200.121 161.668 198.917L162.522 197.661L163.393 198.905C164.451 200.414 165.067 201.628 165.409 202.749C165.754 203.88 165.802 204.854 165.802 205.824C165.802 206.343 165.694 206.965 165.589 207.553C165.477 208.177 165.353 208.84 165.27 209.558C165.106 210.98 165.119 212.518 165.717 214.018C166.086 214.826 166.48 215.617 166.898 216.392C167.166 214.548 168.334 211.772 170.675 209.647L171.844 208.585L172.368 210.075C173.183 212.391 172.999 214.367 172.585 216.087C172.384 216.925 172.12 217.732 171.906 218.438C171.684 219.167 171.509 219.809 171.431 220.425C171.302 221.441 171.379 222.101 171.559 222.66C171.714 223.142 171.955 223.59 172.307 224.178C172.378 224.296 172.452 224.417 172.526 224.54C173.026 225.13 173.537 225.71 174.058 226.281C173.989 226.081 173.925 225.884 173.866 225.69C173.611 224.847 173.438 223.994 173.458 223.262C173.51 221.336 174.809 217.762 177.776 215.13L178.959 214.08L179.465 215.579C180.323 218.125 180.093 220.287 179.613 222.172C179.379 223.093 179.077 223.977 178.828 224.76C178.572 225.565 178.367 226.281 178.269 226.972C178.116 228.065 178.087 228.889 178.232 229.584C178.313 229.97 178.452 230.336 178.679 230.698C178.899 230.998 179.112 231.259 179.311 231.47C179.927 232.027 180.548 232.574 181.172 233.112C180.601 231.61 180.373 230.199 180.351 228.95C180.315 226.839 181.571 222.84 184.726 219.82L185.862 218.732L186.429 220.199C187.498 222.972 187.352 225.362 186.913 227.466C186.699 228.495 186.407 229.485 186.168 230.368C185.923 231.275 185.727 232.087 185.652 232.87C185.518 234.263 185.515 235.163 185.707 235.894C185.875 236.532 186.213 237.118 186.931 237.812C186.973 237.852 187.015 237.891 187.058 237.931C187.278 238.105 187.5 238.279 187.721 238.453C187.692 238.311 187.667 238.171 187.646 238.03C187.377 236.236 187.784 234.59 187.952 233.512C188.253 231.58 190.022 228.106 193.346 225.739L194.661 224.803L194.982 226.385C196.031 231.568 194.255 234.458 192.709 237.628C192.085 238.907 191.699 239.66 191.634 240.348C191.585 240.857 191.712 241.436 192.633 242.297C193.287 242.817 194.396 243.769 195.553 244.779C195.351 243.82 195.346 242.959 195.41 242.171C195.539 240.575 196.759 237.712 199.28 235.672L200.519 234.669L200.949 236.204C202.102 240.324 200.179 243.353 199.477 245.493C199.171 246.426 199.096 246.836 199.151 247.189C199.204 247.525 199.404 247.964 200.106 248.818C202.282 251.034 204.42 253.088 205.888 255.424C206.133 238.571 203.842 226.625 201.196 212.128C200.211 206.735 199.523 198.167 198.605 189.64C197.679 181.039 196.52 172.473 194.612 166.867C193.509 163.622 191.47 160.35 188.98 156.951C186.47 153.527 183.659 150.171 180.88 146.519C179.473 145 176.903 144.189 173.426 143.82C169.971 143.454 165.922 143.548 161.822 143.585C157.771 143.621 153.665 143.6 150.263 142.961C147.273 142.4 144.585 141.318 143.022 139.146C142.684 138.676 142.895 138.038 143.41 137.774C143.926 137.511 144.55 137.725 144.918 138.171C146.046 139.538 147.981 140.401 150.65 140.901C153.819 141.496 157.723 141.525 161.803 141.488C165.836 141.453 170.04 141.354 173.647 141.736C175.368 141.918 177.025 142.216 178.5 142.718C177.04 140.426 175.635 138.259 174.473 136.166C172.835 133.215 171.568 130.232 171.058 126.815C170.972 126.242 171.394 125.727 171.97 125.669C172.546 125.611 173.057 126.031 173.146 126.603C173.616 129.646 174.755 132.355 176.306 135.149C178.062 138.313 180.213 141.375 182.552 145.254C185.216 148.755 188.182 152.316 190.67 155.712C191.667 157.073 192.611 158.438 193.464 159.81C193.06 151.485 195.153 139.352 203.601 128.125C205.292 124.166 204.624 119.405 203.024 114.345C202.222 111.811 201.207 109.26 200.19 106.758C199.325 104.628 198.454 102.522 197.736 100.531C197.54 99.9864 197.834 99.3911 198.382 99.205C198.93 99.019 199.524 99.3125 199.721 99.8569C200.415 101.779 201.261 103.825 202.132 105.969C203.148 108.47 204.193 111.091 205.022 113.713C206.112 117.157 206.865 120.706 206.648 124.08C212.363 116.452 220.953 104.665 226.148 95.2292C226.427 94.7221 227.062 94.5299 227.572 94.8031Z" fill="#6F6C43"/>
<path d="M279.485 126.602C280.902 126.265 281.862 127.192 282.348 129.646C283.684 128.573 284.396 129.767 284.774 131.374C285.156 133.002 284.842 134.411 283.8 135.119C283.912 135.356 284.154 135.785 284.22 136.069C284.822 137.714 283.428 140.377 282.197 140.94C281.577 141.223 281.488 139.915 280.951 139.534C280.789 140.708 280.213 142.14 279.418 142.503C278.187 143.066 276.848 141.601 276.389 139.646C276.18 138.756 277.368 137.938 277.399 136.785C276.703 136.376 275.088 136.172 274.83 135.073C274.365 133.095 275.103 130.982 276.478 130.354C276.959 130.134 278.208 130.605 278.669 130.771C277.925 129.034 276.252 127.37 279.485 126.602Z" fill="#6F6C43"/>
<path d="M134.219 130.573C135.879 128.443 137.493 127.71 139.149 128.136C142.928 129.108 140.097 130.43 138.413 131.901C139.069 131.795 140.855 131.492 141.373 131.73C142.852 132.41 142.891 134.348 141.46 136.057C140.665 137.007 138.527 137.041 137.469 137.341C137.019 138.364 138.18 139.196 137.536 139.965C136.122 141.655 133.8 142.831 132.475 142.222C131.62 141.828 131.497 140.509 131.791 139.454C130.947 139.743 130.278 140.893 129.611 140.587C128.286 139.977 127.648 137.493 129.112 136.091C129.317 135.846 129.806 135.487 130.05 135.287C129.026 134.567 129.227 133.29 130.404 131.884C131.567 130.495 132.979 129.502 134.219 130.573Z" fill="#6F6C43"/>
<path d="M159.043 126.425C161.935 124.782 164.083 124.587 165.7 125.626C169.391 127.996 165.606 128.373 163.015 129.317C163.792 129.44 165.915 129.758 166.369 130.193C167.665 131.436 166.744 133.484 164.313 134.769C162.963 135.482 160.584 134.755 159.266 134.692C158.26 135.606 159.129 136.894 158.035 137.472C155.633 138.741 152.482 139.148 151.321 138.035C150.572 137.316 151.093 135.887 151.942 134.885C150.866 134.887 149.556 135.855 148.972 135.296C147.811 134.183 148.342 131.346 150.656 130.396C151.005 130.212 151.723 130.01 152.092 129.887C151.319 128.766 152.176 127.497 154.176 126.44C156.151 125.397 158.205 124.858 159.043 126.425Z" fill="#6F6C43"/>
<path d="M257.838 118.946C259.268 118.192 260.931 118.914 262.963 121.399C263.858 119.882 265.395 120.959 266.795 122.57C268.212 124.201 268.696 125.794 267.919 126.839C268.191 127.061 268.727 127.452 268.974 127.736C270.655 129.325 270.647 132.557 269.565 133.501C269.021 133.975 268.134 132.604 267.287 132.346C267.805 133.645 268.001 135.334 267.303 135.943C266.221 136.887 263.8 135.694 262.098 133.735C261.323 132.843 262.201 131.639 261.545 130.399C260.498 130.155 258.514 130.388 257.558 129.286C255.835 127.304 255.418 124.842 256.625 123.789C257.048 123.42 258.768 123.575 259.399 123.624C257.5 121.976 254.574 120.666 257.838 118.946Z" fill="#6F6C43"/>
<path d="M285.05 114.404C286.232 114.276 287.174 115.219 287.891 117.468C288.913 116.673 289.673 117.825 290.194 119.305C290.722 120.804 290.622 122.024 289.808 122.528C289.934 122.753 290.194 123.166 290.286 123.427C291.006 124.968 290.126 127.176 289.131 127.528C288.631 127.706 288.395 126.528 287.886 126.123C287.889 127.151 287.566 128.359 286.924 128.586C285.929 128.939 284.596 127.469 283.962 125.668C283.674 124.849 284.6 124.263 284.487 123.238C283.836 122.788 282.418 122.41 282.061 121.399C281.42 119.577 281.8 117.781 282.911 117.387C283.3 117.25 284.434 117.821 284.852 118.025C283.999 116.384 282.354 114.697 285.05 114.404Z" fill="#6F6C43"/>
<path d="M129.458 118.04C130.698 116.257 131.994 115.678 133.402 116.103C136.616 117.072 134.345 118.117 133.041 119.331C133.581 119.262 135.048 119.06 135.495 119.284C136.773 119.922 136.936 121.598 135.858 123.026C135.259 123.819 133.48 123.776 132.618 123.999C132.311 124.868 133.335 125.626 132.85 126.269C131.784 127.681 129.928 128.618 128.783 128.046C128.044 127.677 127.854 126.533 128.028 125.632C127.344 125.853 126.864 126.824 126.288 126.536C125.143 125.964 124.445 123.796 125.571 122.634C125.726 122.43 126.109 122.136 126.299 121.972C125.398 121.315 125.48 120.219 126.367 119.044C127.242 117.883 128.353 117.073 129.458 118.04Z" fill="#6F6C43"/>
<path d="M145.678 116.101C147.548 115.34 149.426 115.016 149.977 116.412C152.73 115.199 154.649 115.176 155.952 116.172C158.927 118.445 155.539 118.515 153.137 119.15C153.809 119.307 155.646 119.721 155.994 120.123C156.988 121.272 155.929 122.962 153.628 123.899C152.35 124.419 150.337 123.639 149.181 123.497C148.182 124.212 148.795 125.371 147.76 125.792C145.485 126.718 142.654 126.856 141.763 125.826C141.188 125.162 141.82 123.974 142.69 123.174C141.74 123.104 140.466 123.845 140.018 123.327C139.127 122.298 139.936 119.908 142.094 119.249C142.424 119.115 143.083 118.99 143.424 118.91C142.876 117.899 143.785 116.871 145.678 116.101Z" fill="#6F6C43"/>
<path d="M266.812 111.823C267.988 111.041 269.497 111.521 271.483 113.502C272.127 112.104 273.558 112.904 274.917 114.18C276.293 115.473 276.854 116.814 276.271 117.791C276.528 117.96 277.028 118.253 277.268 118.478C278.869 119.711 279.148 122.52 278.291 123.436C277.86 123.896 276.968 122.783 276.209 122.634C276.774 123.717 277.094 125.168 276.541 125.759C275.684 126.674 273.475 125.852 271.822 124.299C271.07 123.593 271.726 122.469 271.047 121.449C270.115 121.33 268.411 121.707 267.482 120.835C265.81 119.264 265.23 117.162 266.186 116.139C266.521 115.781 268.03 115.764 268.582 115.751C266.785 114.486 264.127 113.606 266.812 111.823Z" fill="#6F6C43"/>
<path d="M169.805 111.453C172.285 111.088 174.591 111.186 174.636 112.79C178.327 112.155 180.552 112.581 181.635 113.939C184.106 117.038 180.165 116.317 177.124 116.424C177.833 116.748 179.777 117.616 180.009 118.122C180.671 119.57 178.732 121.107 175.679 121.556C173.983 121.806 171.99 120.509 170.715 120.088C169.259 120.608 169.476 121.977 168.103 122.179C165.085 122.623 161.759 122.104 161.166 120.808C160.784 119.971 162.016 118.865 163.36 118.223C162.292 117.926 160.508 118.41 160.209 117.758C159.617 116.462 161.564 114.127 164.334 113.938C164.771 113.873 165.585 113.896 166.012 113.891C165.808 112.695 167.293 111.822 169.805 111.453Z" fill="#6F6C43"/>
<path d="M247.039 102.37C248.096 101.14 249.913 101.201 252.725 102.772C253.002 101.026 254.833 101.465 256.733 102.453C258.656 103.453 259.695 104.76 259.354 106.022C259.69 106.129 260.335 106.297 260.67 106.471C262.824 107.335 264.007 110.353 263.345 111.632C263.012 112.276 261.679 111.323 260.793 111.395C261.756 112.416 262.561 113.92 262.134 114.745C261.472 116.024 258.773 115.804 256.463 114.602C255.411 114.055 255.787 112.608 254.718 111.693C253.651 111.852 251.886 112.799 250.587 112.124C248.249 110.908 246.953 108.765 247.691 107.337C247.95 106.837 249.613 106.348 250.219 106.161C247.839 105.323 244.627 105.178 247.039 102.37Z" fill="#6F6C43"/>
<path d="M141.965 106.456C143.716 106.059 145.383 106.015 145.562 107.2C148.158 106.542 149.798 106.745 150.701 107.695C152.762 109.864 149.862 109.531 147.685 109.764C148.224 109.968 149.703 110.512 149.916 110.875C150.524 111.913 149.271 113.15 147.117 113.638C145.92 113.908 144.367 113.05 143.412 112.803C142.413 113.262 142.694 114.264 141.725 114.484C139.596 114.966 137.156 114.751 136.611 113.821C136.259 113.221 137.044 112.339 137.951 111.796C137.156 111.631 135.917 112.08 135.643 111.612C135.098 110.682 136.284 108.854 138.259 108.574C138.567 108.504 139.154 108.479 139.461 108.454C139.205 107.578 140.192 106.857 141.965 106.456Z" fill="#6F6C43"/>
<path d="M272.301 103.211C273.155 102.385 274.477 102.552 276.423 103.888C276.743 102.633 278.05 103.076 279.369 103.925C280.706 104.785 281.375 105.809 281.042 106.707C281.28 106.807 281.739 106.974 281.971 107.123C283.485 107.899 284.145 110.182 283.576 111.07C283.29 111.517 282.381 110.732 281.73 110.725C282.363 111.535 282.849 112.687 282.482 113.26C281.913 114.149 279.958 113.806 278.353 112.773C277.622 112.303 277.994 111.272 277.276 110.533C276.486 110.576 275.134 111.149 274.232 110.568C272.608 109.523 271.806 107.872 272.442 106.88C272.664 106.532 273.91 106.287 274.366 106.192C272.686 105.42 270.351 105.097 272.301 103.211Z" fill="#6F6C43"/>
<path d="M166.079 100.185C169.221 98.7719 171.422 98.7326 172.929 99.8686C176.369 102.462 172.484 102.566 169.737 103.312C170.509 103.488 172.621 103.951 173.025 104.411C174.18 105.726 172.986 107.677 170.359 108.769C168.899 109.376 166.58 108.492 165.252 108.337C164.116 109.166 164.832 110.494 163.651 110.986C161.053 112.065 157.808 112.243 156.773 111.066C156.106 110.306 156.815 108.936 157.804 108.01C156.713 107.936 155.261 108.797 154.74 108.204C153.706 107.027 154.605 104.273 157.072 103.502C157.449 103.345 158.203 103.197 158.593 103.102C157.952 101.944 158.982 100.756 161.144 99.8568C163.28 98.9692 165.43 98.5841 166.079 100.185Z" fill="#6F6C43"/>
<path d="M256.624 89.5699C257.982 88.6832 259.71 89.2482 261.973 91.5407C262.725 89.9413 264.362 90.8728 265.911 92.351C267.479 93.8478 268.112 95.3928 267.434 96.5097C267.726 96.7059 268.298 97.0468 268.571 97.3074C270.399 98.7373 270.694 101.966 269.702 103.01C269.203 103.535 268.188 102.248 267.318 102.071C267.958 103.319 268.311 104.988 267.671 105.662C266.679 106.706 264.149 105.742 262.265 103.943C261.407 103.125 262.172 101.84 261.4 100.664C260.331 100.518 258.372 100.936 257.313 99.9256C255.406 98.1064 254.759 95.687 255.866 94.5215C256.254 94.1135 257.987 94.1068 258.622 94.097C256.57 92.6287 253.525 91.5938 256.624 89.5699Z" fill="#6F6C43"/>
<path d="M203.126 88.762C203.626 87.2425 206.655 85.9402 208.744 87.0784C209.098 87.2252 209.656 87.6341 209.961 87.8327C210.665 86.5936 212.331 86.4674 214.366 87.3103C216.375 88.1427 217.932 89.3342 216.827 90.8868C219.882 92.0371 221.15 93.5034 220.952 95.3148C220.5 99.4492 218.23 96.8856 216.008 95.5399C216.279 96.1862 217.036 97.9408 216.841 98.5347C216.282 100.231 213.824 100.776 211.352 99.7513C209.978 99.1821 209.49 96.9954 208.889 95.987C207.493 95.7908 206.676 97.2001 205.563 96.7393C203.119 95.7267 201.139 93.6482 201.64 92.1287C201.963 91.1479 203.617 90.6781 205.02 90.7056C204.477 89.914 202.874 89.5265 203.126 88.762Z" fill="#6F6C43"/>
<path d="M189.662 83.6328C191.793 83.4028 193.655 83.7172 193.258 85.6552C196.454 85.2017 198.162 85.9044 198.681 87.6334C199.866 91.5798 196.833 90.3769 194.312 90.2481C194.805 90.6984 196.163 91.9102 196.216 92.5408C196.366 94.3421 194.361 96.0316 191.738 96.3146C190.281 96.4718 188.999 94.7391 188.069 94.1237C186.735 94.6278 186.541 96.2964 185.362 96.4237C182.769 96.7034 180.184 95.7963 180.05 94.1828C179.963 93.1414 181.273 91.9111 182.547 91.2516C181.753 90.8031 180.16 91.2355 180.092 90.4238C179.958 88.8103 182.186 86.1594 184.507 86.1662C184.883 86.1256 185.543 86.2219 185.894 86.2521C186.051 84.7921 187.504 83.8657 189.662 83.6328Z" fill="#6F6C43"/>
<path d="M231.522 78.6019C231.584 76.4222 233.34 76.5348 235.222 77.2977C237.127 78.0703 238.242 79.4177 238.067 81.0253C238.392 81.0779 239.011 81.1342 239.343 81.2688C241.448 81.823 242.89 85.212 242.417 86.9141C242.179 87.7703 240.829 86.92 240.011 87.21C241.023 88.2274 241.942 89.8669 241.637 90.9654C241.164 92.6676 238.623 93.0174 236.334 92.0894C235.292 91.667 235.48 89.8263 234.381 88.9616C233.404 89.3981 231.865 90.9508 230.578 90.4292C228.262 89.4902 226.813 87.1887 227.342 85.2885C227.527 84.6232 229.022 83.6492 229.566 83.2844C227.254 82.813 224.242 83.3723 226.176 79.4163C227.023 77.6831 228.724 77.341 231.522 78.6019Z" fill="#6F6C43"/>
<path d="M174.057 76.4669C176.577 74.2095 178.361 73.8105 179.603 74.9837C182.438 77.6615 179.292 78.4086 177.079 79.7734C177.708 79.8697 179.428 80.11 179.764 80.618C180.725 82.069 179.793 84.6852 177.683 86.4618C176.511 87.4486 174.615 86.7184 173.536 86.7371C172.63 87.948 173.236 89.4867 172.287 90.2857C170.201 92.0415 167.574 92.779 166.714 91.4793C166.159 90.6405 166.709 88.8234 167.493 87.5141C166.608 87.5957 165.446 88.8973 165.014 88.2435C164.153 86.9438 164.832 83.3759 166.817 82.0238C167.12 81.7693 167.728 81.4651 168.042 81.2852C167.502 79.9462 168.315 78.3049 170.051 76.8432C171.765 75.3997 173.501 74.5789 174.057 76.4669Z" fill="#6F6C43"/>
<path d="M240.778 67.2572C241.951 65.8219 243.679 66.0749 246.156 68.3134C246.653 66.1574 248.344 66.8841 250.026 68.3045C251.73 69.7429 252.548 71.4791 252.055 73.0238C252.361 73.1901 252.954 73.463 253.251 73.7135C255.193 75.0035 255.921 78.8938 255.118 80.4289C254.714 81.201 253.568 79.8792 252.712 79.883C253.495 81.2535 254.063 83.2129 253.545 84.2037C252.742 85.7387 250.194 85.1996 248.147 83.4718C247.216 82.6855 247.768 80.9122 246.869 79.6639C245.828 79.7581 244.016 80.771 242.865 79.7999C240.794 78.0517 239.842 75.2455 240.738 73.5318C241.052 72.9318 242.705 72.4815 243.31 72.3076C241.148 71.0276 238.099 70.5332 240.778 67.2572Z" fill="#6F6C43"/>
<path d="M211.373 73.2638C211.746 71.8546 213.317 71.2176 215.479 71.398C217.615 71.5762 219.403 72.2397 218.72 74.0745C221.938 74.2346 223.516 75.2516 223.769 77.0544C224.345 81.1694 221.535 79.4075 219.07 78.8016C219.489 79.3391 220.645 80.7915 220.603 81.4231C220.48 83.227 218.251 84.5115 215.623 84.2921C214.163 84.1703 213.16 82.2188 212.335 81.4355C210.945 81.679 210.504 83.287 209.322 83.1884C206.725 82.9715 204.313 81.5862 204.422 79.9703C204.493 78.9275 205.968 77.9636 207.324 77.5558C206.608 76.9629 204.973 77.0864 205.028 76.2735C205.138 74.6577 207.731 72.468 210.018 72.9156C210.394 72.947 211.031 73.1673 211.373 73.2638Z" fill="#6F6C43"/>
<path d="M193.514 68.9889C195.645 68.759 197.507 69.0734 197.11 71.0114C200.306 70.5579 202.014 71.2605 202.533 72.9896C203.718 76.936 200.685 75.7331 198.164 75.6042C198.657 76.0545 200.015 77.2663 200.068 77.897C200.217 79.6983 198.213 81.3878 195.59 81.6708C194.133 81.828 192.851 80.0953 191.92 79.4799C190.587 79.984 190.393 81.6526 189.213 81.7799C186.621 82.0596 184.036 81.1524 183.902 79.5389C183.815 78.4976 185.124 77.2673 186.399 76.6078C185.605 76.1593 184.012 76.5917 183.944 75.78C183.81 74.1665 186.038 71.5155 188.359 71.5224C188.734 71.4818 189.395 71.5781 189.746 71.6082C189.903 70.1483 191.356 69.2218 193.514 68.9889Z" fill="#6F6C43"/>
<path d="M225.555 60.0668C225.586 57.8675 227.517 58.0196 229.597 58.831C231.703 59.6526 232.95 61.0373 232.785 62.6565C233.143 62.7167 233.824 62.7871 234.191 62.9302C236.513 63.5357 238.155 66.9888 237.664 68.6968C237.417 69.5561 235.92 68.6681 235.027 68.943C236.156 69.9923 237.193 71.6676 236.876 72.77C236.386 74.4781 233.601 74.7758 231.071 73.7888C229.92 73.3397 230.095 71.4855 228.873 70.5885C227.807 71.0078 226.143 72.5417 224.721 71.987C222.161 70.9884 220.53 68.6331 221.078 66.7263C221.269 66.0586 222.895 65.1079 223.487 64.7515C220.939 64.225 217.641 64.7239 219.697 60.7722C220.598 59.0409 222.46 58.7326 225.555 60.0668Z" fill="#6F6C43"/>
<path d="M203.766 57.8957C204.14 56.4866 205.71 55.8495 207.872 56.0299C210.008 56.2082 211.796 56.8717 211.113 58.7064C214.331 58.8665 215.909 59.8835 216.162 61.6864C216.738 65.8013 213.928 64.0394 211.463 63.4335C211.882 63.971 213.039 65.4234 212.996 66.055C212.873 67.8589 210.644 69.1434 208.016 68.9241C206.556 68.8022 205.553 66.8507 204.728 66.0674C203.338 66.311 202.897 67.919 201.715 67.8203C199.118 67.6035 196.706 66.2181 196.815 64.6023C196.886 63.5594 198.362 62.5956 199.717 62.1877C199.001 61.5948 197.366 61.7183 197.421 60.9054C197.531 59.2896 200.124 57.0999 202.411 57.5475C202.787 57.5789 203.424 57.7992 203.766 57.8957Z" fill="#6F6C43"/>
<path d="M279.485 126.602C280.902 126.265 281.862 127.192 282.348 129.646C283.684 128.573 284.396 129.767 284.774 131.374C285.156 133.002 284.842 134.411 283.8 135.119C283.912 135.356 284.154 135.785 284.22 136.069C284.822 137.714 283.428 140.377 282.197 140.94C281.577 141.223 281.488 139.915 280.951 139.534C280.789 140.708 280.213 142.14 279.418 142.503C278.187 143.066 276.848 141.601 276.389 139.646C276.18 138.756 277.368 137.938 277.399 136.785C276.703 136.376 275.088 136.172 274.83 135.073C274.365 133.095 275.103 130.982 276.478 130.354C276.959 130.134 278.208 130.605 278.669 130.771C277.925 129.034 276.252 127.37 279.485 126.602Z" fill="#6F6C43"/>
<path d="M134.219 130.573C135.879 128.443 137.493 127.71 139.149 128.136C142.928 129.108 140.097 130.43 138.413 131.901C139.069 131.795 140.855 131.492 141.373 131.73C142.852 132.41 142.891 134.348 141.46 136.057C140.665 137.007 138.527 137.041 137.469 137.341C137.019 138.364 138.18 139.196 137.536 139.965C136.122 141.655 133.8 142.831 132.475 142.222C131.62 141.828 131.497 140.509 131.791 139.454C130.947 139.743 130.278 140.893 129.611 140.587C128.286 139.977 127.648 137.493 129.112 136.091C129.317 135.846 129.806 135.487 130.05 135.287C129.026 134.567 129.227 133.29 130.404 131.884C131.567 130.495 132.979 129.502 134.219 130.573Z" fill="#6F6C43"/>
<path d="M159.043 126.425C161.935 124.782 164.083 124.587 165.7 125.626C169.391 127.996 165.606 128.373 163.015 129.317C163.792 129.44 165.915 129.758 166.369 130.193C167.665 131.436 166.744 133.484 164.313 134.769C162.963 135.482 160.584 134.755 159.266 134.692C158.26 135.606 159.129 136.894 158.035 137.472C155.633 138.741 152.482 139.148 151.321 138.035C150.572 137.316 151.093 135.887 151.942 134.885C150.866 134.887 149.556 135.855 148.972 135.296C147.811 134.183 148.342 131.346 150.656 130.396C151.005 130.212 151.723 130.01 152.092 129.887C151.319 128.766 152.176 127.497 154.176 126.44C156.151 125.397 158.205 124.858 159.043 126.425Z" fill="#6F6C43"/>
<path d="M257.838 118.946C259.268 118.192 260.931 118.914 262.963 121.399C263.858 119.882 265.395 120.959 266.795 122.57C268.212 124.201 268.696 125.794 267.919 126.839C268.191 127.061 268.727 127.452 268.974 127.736C270.655 129.325 270.647 132.557 269.565 133.501C269.021 133.975 268.134 132.604 267.287 132.346C267.805 133.645 268.001 135.334 267.303 135.943C266.221 136.887 263.8 135.694 262.098 133.735C261.323 132.843 262.201 131.639 261.545 130.399C260.498 130.155 258.514 130.388 257.558 129.286C255.835 127.304 255.418 124.842 256.625 123.789C257.048 123.42 258.768 123.575 259.399 123.624C257.5 121.976 254.574 120.666 257.838 118.946Z" fill="#6F6C43"/>
<path d="M285.05 114.404C286.232 114.276 287.174 115.219 287.891 117.468C288.913 116.673 289.673 117.825 290.194 119.305C290.722 120.804 290.622 122.024 289.808 122.528C289.934 122.753 290.194 123.166 290.286 123.427C291.006 124.968 290.126 127.176 289.131 127.528C288.631 127.706 288.395 126.528 287.886 126.123C287.889 127.151 287.566 128.359 286.924 128.586C285.929 128.939 284.596 127.469 283.962 125.668C283.674 124.849 284.6 124.263 284.487 123.238C283.836 122.788 282.418 122.41 282.061 121.399C281.42 119.577 281.8 117.781 282.911 117.387C283.3 117.25 284.434 117.821 284.852 118.025C283.999 116.384 282.354 114.697 285.05 114.404Z" fill="#6F6C43"/>
<path d="M129.458 118.04C130.698 116.257 131.994 115.678 133.402 116.103C136.616 117.072 134.345 118.117 133.041 119.331C133.581 119.262 135.048 119.06 135.495 119.284C136.773 119.922 136.936 121.598 135.858 123.026C135.259 123.819 133.48 123.776 132.618 123.999C132.311 124.868 133.335 125.626 132.85 126.269C131.784 127.681 129.928 128.618 128.783 128.046C128.044 127.677 127.854 126.533 128.028 125.632C127.344 125.853 126.864 126.824 126.288 126.536C125.143 125.964 124.445 123.796 125.571 122.634C125.726 122.43 126.109 122.136 126.299 121.972C125.398 121.315 125.48 120.219 126.367 119.044C127.242 117.883 128.353 117.073 129.458 118.04Z" fill="#6F6C43"/>
<path d="M145.678 116.101C147.548 115.34 149.426 115.016 149.977 116.412C152.73 115.199 154.649 115.176 155.952 116.172C158.927 118.445 155.539 118.515 153.137 119.15C153.809 119.307 155.646 119.721 155.994 120.123C156.988 121.272 155.929 122.962 153.628 123.899C152.35 124.419 150.337 123.639 149.181 123.497C148.182 124.212 148.795 125.371 147.76 125.792C145.485 126.718 142.654 126.856 141.763 125.826C141.188 125.162 141.82 123.974 142.69 123.174C141.74 123.104 140.466 123.845 140.018 123.327C139.127 122.298 139.936 119.908 142.094 119.249C142.424 119.115 143.083 118.99 143.424 118.91C142.876 117.899 143.785 116.871 145.678 116.101Z" fill="#6F6C43"/>
<path d="M266.812 111.823C267.988 111.041 269.497 111.521 271.483 113.502C272.127 112.104 273.558 112.904 274.917 114.18C276.293 115.473 276.854 116.814 276.271 117.791C276.528 117.96 277.028 118.253 277.268 118.478C278.869 119.711 279.148 122.52 278.291 123.436C277.86 123.896 276.968 122.783 276.209 122.634C276.774 123.717 277.094 125.168 276.541 125.759C275.684 126.674 273.475 125.852 271.822 124.299C271.07 123.593 271.726 122.469 271.047 121.449C270.115 121.33 268.411 121.707 267.482 120.835C265.81 119.264 265.23 117.162 266.186 116.139C266.521 115.781 268.03 115.764 268.582 115.751C266.785 114.486 264.127 113.606 266.812 111.823Z" fill="#6F6C43"/>
<path d="M169.805 111.453C172.285 111.088 174.591 111.186 174.636 112.79C178.327 112.155 180.552 112.581 181.635 113.939C184.106 117.038 180.165 116.317 177.124 116.424C177.833 116.748 179.777 117.616 180.009 118.122C180.671 119.57 178.732 121.107 175.679 121.556C173.983 121.806 171.99 120.509 170.715 120.088C169.259 120.608 169.476 121.977 168.103 122.179C165.085 122.623 161.759 122.104 161.166 120.808C160.784 119.971 162.016 118.865 163.36 118.223C162.292 117.926 160.508 118.41 160.209 117.758C159.617 116.462 161.564 114.127 164.334 113.938C164.771 113.873 165.585 113.896 166.012 113.891C165.808 112.695 167.293 111.822 169.805 111.453Z" fill="#6F6C43"/>
<path d="M247.039 102.37C248.096 101.14 249.913 101.201 252.725 102.772C253.002 101.026 254.833 101.465 256.733 102.453C258.656 103.453 259.695 104.76 259.354 106.022C259.69 106.129 260.335 106.297 260.67 106.471C262.824 107.335 264.007 110.353 263.345 111.632C263.012 112.276 261.679 111.323 260.793 111.395C261.756 112.416 262.561 113.92 262.134 114.745C261.472 116.024 258.773 115.804 256.463 114.602C255.411 114.055 255.787 112.608 254.718 111.693C253.651 111.852 251.886 112.799 250.587 112.124C248.249 110.908 246.953 108.765 247.691 107.337C247.95 106.837 249.613 106.348 250.219 106.161C247.839 105.323 244.627 105.178 247.039 102.37Z" fill="#6F6C43"/>
<path d="M141.965 106.456C143.716 106.059 145.383 106.015 145.562 107.2C148.158 106.542 149.798 106.745 150.701 107.695C152.762 109.864 149.862 109.531 147.685 109.764C148.224 109.968 149.703 110.512 149.916 110.875C150.524 111.913 149.271 113.15 147.117 113.638C145.92 113.908 144.367 113.05 143.412 112.803C142.413 113.262 142.694 114.264 141.725 114.484C139.596 114.966 137.156 114.751 136.611 113.821C136.259 113.221 137.044 112.339 137.951 111.796C137.156 111.631 135.917 112.08 135.643 111.612C135.098 110.682 136.284 108.854 138.259 108.574C138.567 108.504 139.154 108.479 139.461 108.454C139.205 107.578 140.192 106.857 141.965 106.456Z" fill="#6F6C43"/>
<path d="M272.301 103.211C273.155 102.385 274.477 102.552 276.423 103.888C276.743 102.633 278.05 103.076 279.369 103.925C280.706 104.785 281.375 105.809 281.042 106.707C281.28 106.807 281.739 106.974 281.971 107.123C283.485 107.899 284.145 110.182 283.576 111.07C283.29 111.517 282.381 110.732 281.73 110.725C282.363 111.535 282.849 112.687 282.482 113.26C281.913 114.149 279.958 113.806 278.353 112.773C277.622 112.303 277.994 111.272 277.276 110.533C276.486 110.576 275.134 111.149 274.232 110.568C272.608 109.523 271.806 107.872 272.442 106.88C272.664 106.532 273.91 106.287 274.366 106.192C272.686 105.42 270.351 105.097 272.301 103.211Z" fill="#6F6C43"/>
<path d="M166.079 100.185C169.221 98.7719 171.422 98.7326 172.929 99.8686C176.369 102.462 172.484 102.566 169.737 103.312C170.509 103.488 172.621 103.951 173.025 104.411C174.18 105.726 172.986 107.677 170.359 108.769C168.899 109.376 166.58 108.492 165.252 108.337C164.116 109.166 164.832 110.494 163.651 110.986C161.053 112.065 157.808 112.243 156.773 111.066C156.106 110.306 156.815 108.936 157.804 108.01C156.713 107.936 155.261 108.797 154.74 108.204C153.706 107.027 154.605 104.273 157.072 103.502C157.449 103.345 158.203 103.197 158.593 103.102C157.952 101.944 158.982 100.756 161.144 99.8568C163.28 98.9692 165.43 98.5841 166.079 100.185Z" fill="#6F6C43"/>
<path d="M256.624 89.5699C257.982 88.6832 259.71 89.2482 261.973 91.5407C262.725 89.9413 264.362 90.8728 265.911 92.351C267.479 93.8478 268.112 95.3928 267.434 96.5097C267.726 96.7059 268.298 97.0468 268.571 97.3074C270.399 98.7373 270.694 101.966 269.702 103.01C269.203 103.535 268.188 102.248 267.318 102.071C267.958 103.319 268.311 104.988 267.671 105.662C266.679 106.706 264.149 105.742 262.265 103.943C261.407 103.125 262.172 101.84 261.4 100.664C260.331 100.518 258.372 100.936 257.313 99.9256C255.406 98.1064 254.759 95.687 255.866 94.5215C256.254 94.1135 257.987 94.1068 258.622 94.097C256.57 92.6287 253.525 91.5938 256.624 89.5699Z" fill="#6F6C43"/>
<path d="M203.126 88.762C203.626 87.2425 206.655 85.9402 208.744 87.0784C209.098 87.2252 209.656 87.6341 209.961 87.8327C210.665 86.5936 212.331 86.4674 214.366 87.3103C216.375 88.1427 217.932 89.3342 216.827 90.8868C219.882 92.0371 221.15 93.5034 220.952 95.3148C220.5 99.4492 218.23 96.8856 216.008 95.5399C216.279 96.1862 217.036 97.9408 216.841 98.5347C216.282 100.231 213.824 100.776 211.352 99.7513C209.978 99.1821 209.49 96.9954 208.889 95.987C207.493 95.7908 206.676 97.2001 205.563 96.7393C203.119 95.7267 201.139 93.6482 201.64 92.1287C201.963 91.1479 203.617 90.6781 205.02 90.7056C204.477 89.914 202.874 89.5265 203.126 88.762Z" fill="#6F6C43"/>
<path d="M189.662 83.6328C191.793 83.4028 193.655 83.7172 193.258 85.6552C196.454 85.2017 198.162 85.9044 198.681 87.6334C199.866 91.5798 196.833 90.3769 194.312 90.2481C194.805 90.6984 196.163 91.9102 196.216 92.5408C196.366 94.3421 194.361 96.0316 191.738 96.3146C190.281 96.4718 188.999 94.7391 188.069 94.1237C186.735 94.6278 186.541 96.2964 185.362 96.4237C182.769 96.7034 180.184 95.7963 180.05 94.1828C179.963 93.1414 181.273 91.9111 182.547 91.2516C181.753 90.8031 180.16 91.2355 180.092 90.4238C179.958 88.8103 182.186 86.1594 184.507 86.1662C184.883 86.1256 185.543 86.2219 185.894 86.2521C186.051 84.7921 187.504 83.8657 189.662 83.6328Z" fill="#6F6C43"/>
<path d="M231.522 78.6019C231.584 76.4222 233.34 76.5348 235.222 77.2977C237.127 78.0703 238.242 79.4177 238.067 81.0253C238.392 81.0779 239.011 81.1342 239.343 81.2688C241.448 81.823 242.89 85.212 242.417 86.9141C242.179 87.7703 240.829 86.92 240.011 87.21C241.023 88.2274 241.942 89.8669 241.637 90.9654C241.164 92.6676 238.623 93.0174 236.334 92.0894C235.292 91.667 235.48 89.8263 234.381 88.9616C233.404 89.3981 231.865 90.9508 230.578 90.4292C228.262 89.4902 226.813 87.1887 227.342 85.2885C227.527 84.6232 229.022 83.6492 229.566 83.2844C227.254 82.813 224.242 83.3723 226.176 79.4163C227.023 77.6831 228.724 77.341 231.522 78.6019Z" fill="#6F6C43"/>
<path d="M174.057 76.4669C176.577 74.2095 178.361 73.8105 179.603 74.9837C182.438 77.6615 179.292 78.4086 177.079 79.7734C177.708 79.8697 179.428 80.11 179.764 80.618C180.725 82.069 179.793 84.6852 177.683 86.4618C176.511 87.4486 174.615 86.7184 173.536 86.7371C172.63 87.948 173.236 89.4867 172.287 90.2857C170.201 92.0415 167.574 92.779 166.714 91.4793C166.159 90.6405 166.709 88.8234 167.493 87.5141C166.608 87.5957 165.446 88.8973 165.014 88.2435C164.153 86.9438 164.832 83.3759 166.817 82.0238C167.12 81.7693 167.728 81.4651 168.042 81.2852C167.502 79.9462 168.315 78.3049 170.051 76.8432C171.765 75.3997 173.501 74.5789 174.057 76.4669Z" fill="#6F6C43"/>
<path d="M240.778 67.2572C241.951 65.8219 243.679 66.0749 246.156 68.3134C246.653 66.1574 248.344 66.8841 250.026 68.3045C251.73 69.7429 252.548 71.4791 252.055 73.0238C252.361 73.1901 252.954 73.463 253.251 73.7135C255.193 75.0035 255.921 78.8938 255.118 80.4289C254.714 81.201 253.568 79.8792 252.712 79.883C253.495 81.2535 254.063 83.2129 253.545 84.2037C252.742 85.7387 250.194 85.1996 248.147 83.4718C247.216 82.6855 247.768 80.9122 246.869 79.6639C245.828 79.7581 244.016 80.771 242.865 79.7999C240.794 78.0517 239.842 75.2455 240.738 73.5318C241.052 72.9318 242.705 72.4815 243.31 72.3076C241.148 71.0276 238.099 70.5332 240.778 67.2572Z" fill="#6F6C43"/>
<path d="M211.373 73.2638C211.746 71.8546 213.317 71.2176 215.479 71.398C217.615 71.5762 219.403 72.2397 218.72 74.0745C221.938 74.2346 223.516 75.2516 223.769 77.0544C224.345 81.1694 221.535 79.4075 219.07 78.8016C219.489 79.3391 220.645 80.7915 220.603 81.4231C220.48 83.227 218.251 84.5115 215.623 84.2921C214.163 84.1703 213.16 82.2188 212.335 81.4355C210.945 81.679 210.504 83.287 209.322 83.1884C206.725 82.9715 204.313 81.5862 204.422 79.9703C204.493 78.9275 205.968 77.9636 207.324 77.5558C206.608 76.9629 204.973 77.0864 205.028 76.2735C205.138 74.6577 207.731 72.468 210.018 72.9156C210.394 72.947 211.031 73.1673 211.373 73.2638Z" fill="#6F6C43"/>
<path d="M193.514 68.9889C195.645 68.759 197.507 69.0734 197.11 71.0114C200.306 70.5579 202.014 71.2605 202.533 72.9896C203.718 76.936 200.685 75.7331 198.164 75.6042C198.657 76.0545 200.015 77.2663 200.068 77.897C200.217 79.6983 198.213 81.3878 195.59 81.6708C194.133 81.828 192.851 80.0953 191.92 79.4799C190.587 79.984 190.393 81.6526 189.213 81.7799C186.621 82.0596 184.036 81.1524 183.902 79.5389C183.815 78.4976 185.124 77.2673 186.399 76.6078C185.605 76.1593 184.012 76.5917 183.944 75.78C183.81 74.1665 186.038 71.5155 188.359 71.5224C188.734 71.4818 189.395 71.5781 189.746 71.6082C189.903 70.1483 191.356 69.2218 193.514 68.9889Z" fill="#6F6C43"/>
<path d="M225.555 60.0668C225.586 57.8675 227.517 58.0196 229.597 58.831C231.703 59.6526 232.95 61.0373 232.785 62.6565C233.143 62.7167 233.824 62.7871 234.191 62.9302C236.513 63.5357 238.155 66.9888 237.664 68.6968C237.417 69.5561 235.92 68.6681 235.027 68.943C236.156 69.9923 237.193 71.6676 236.876 72.77C236.386 74.4781 233.601 74.7758 231.071 73.7888C229.92 73.3397 230.095 71.4855 228.873 70.5885C227.807 71.0078 226.143 72.5417 224.721 71.987C222.161 70.9884 220.53 68.6331 221.078 66.7263C221.269 66.0586 222.895 65.1079 223.487 64.7515C220.939 64.225 217.641 64.7239 219.697 60.7722C220.598 59.0409 222.46 58.7326 225.555 60.0668Z" fill="#6F6C43"/>
<path d="M203.766 57.8957C204.14 56.4866 205.71 55.8495 207.872 56.0299C210.008 56.2082 211.796 56.8717 211.113 58.7064C214.331 58.8665 215.909 59.8835 216.162 61.6864C216.738 65.8013 213.928 64.0394 211.463 63.4335C211.882 63.971 213.039 65.4234 212.996 66.055C212.873 67.8589 210.644 69.1434 208.016 68.9241C206.556 68.8022 205.553 66.8507 204.728 66.0674C203.338 66.311 202.897 67.919 201.715 67.8203C199.118 67.6035 196.706 66.2181 196.815 64.6023C196.886 63.5594 198.362 62.5956 199.717 62.1877C199.001 61.5948 197.366 61.7183 197.421 60.9054C197.531 59.2896 200.124 57.0999 202.411 57.5475C202.787 57.5789 203.424 57.7992 203.766 57.8957Z" fill="#6F6C43"/>
</svg>
